RhodiumLibre-Regular.ufo
<glyph name="parenleft" format="1">
  <advance width="412"/>
  <unicode hex="0028"/>
  <outline>
    <contour>
      <point x="170" y="680"/>
      <point x="55" y="509"/>
      <point x="55" y="246" type="curve" smooth="yes"/>
      <point x="55" y="-17"/>
      <point x="170" y="-188"/>
      <point x="372" y="-224" type="curve"/>
      <point x="372" y="-152" type="line"/>
      <point x="226" y="-118"/>
      <point x="145" y="7"/>
      <point x="145" y="246" type="curve" smooth="yes"/>
      <point x="145" y="485"/>
      <point x="226" y="610"/>
      <point x="372" y="644" type="curve"/>
      <point x="372" y="716" type="line"/>
    </contour>
  </outline>
</glyph>
<glyph name="asterisk" format="1">
  <advance width="463"/>
  <unicode hex="002A"/>
  <outline>
    <contour>
      <point x="211" y="484" type="line"/>
      <point x="251" y="484" type="line"/>
      <point x="275" y="692" type="line"/>
      <point x="187" y="692" type="line"/>
    </contour>
    <contour>
      <point x="213" y="512" type="line"/>
      <point x="226" y="474" type="line"/>
      <point x="431" y="515" type="line"/>
      <point x="404" y="599" type="line"/>
    </contour>
    <contour>
      <point x="237" y="473" type="line"/>
      <point x="249" y="511" type="line"/>
      <point x="59" y="598" type="line"/>
      <point x="32" y="515" type="line"/>
    </contour>
    <contour>
      <point x="255" y="495" type="line"/>
      <point x="223" y="518" type="line"/>
      <point x="81" y="364" type="line"/>
      <point x="152" y="312" type="line"/>
    </contour>
    <contour>
      <point x="241" y="519" type="line"/>
      <point x="208" y="495" type="line"/>
      <point x="311" y="313" type="line"/>
      <point x="382" y="365" type="line"/>
    </contour>
  </outline>
</glyph>
<glyph name="at" format="1">
  <advance width="902"/>
  <unicode hex="0040"/>
  <outline>
    <contour>
      <point x="215" y="644"/>
      <point x="57" y="506"/>
      <point x="57" y="254" type="curve" smooth="yes"/>
      <point x="57" y="11"/>
      <point x="203" y="-134"/>
      <point x="449" y="-134" type="curve" smooth="yes"/>
      <point x="530" y="-134"/>
      <point x="602" y="-118"/>
      <point x="661" y="-86" type="curve"/>
      <point x="639" y="-41" type="line"/>
      <point x="587" y="-72"/>
      <point x="516" y="-83"/>
      <point x="450" y="-83" type="curve" smooth="yes"/>
      <point x="237" y="-83"/>
      <point x="112" y="32"/>
      <point x="112" y="254" type="curve" smooth="yes"/>
      <point x="112" y="489"/>
      <point x="253" y="593"/>
      <point x="455" y="593" type="curve" smooth="yes"/>
      <point x="662" y="593"/>
      <point x="790" y="484"/>
      <point x="790" y="281" type="curve" smooth="yes"/>
      <point x="790" y="146"/>
      <point x="734" y="106"/>
      <point x="659" y="106" type="curve" smooth="yes"/>
      <point x="606" y="106"/>
      <point x="587" y="124"/>
      <point x="587" y="153" type="curve" smooth="yes"/>
      <point x="587" y="165"/>
      <point x="590" y="180"/>
      <point x="598" y="218" type="curve" smooth="yes"/>
      <point x="645" y="437" type="line"/>
      <point x="561" y="437" type="line"/>
      <point x="552" y="395" type="line"/>
      <point x="535" y="429"/>
      <point x="504" y="450"/>
      <point x="448" y="450" type="curve" smooth="yes"/>
      <point x="332" y="450"/>
      <point x="246" y="359"/>
      <point x="246" y="215" type="curve" smooth="yes"/>
      <point x="246" y="97"/>
      <point x="302" y="52"/>
      <point x="390" y="52" type="curve" smooth="yes"/>
      <point x="452" y="52"/>
      <point x="493" y="74"/>
      <point x="520" y="112" type="curve"/>
      <point x="534" y="72"/>
      <point x="587" y="54"/>
      <point x="647" y="54" type="curve" smooth="yes"/>
      <point x="769" y="54"/>
      <point x="845" y="132"/>
      <point x="845" y="288" type="curve" smooth="yes"/>
      <point x="845" y="515"/>
      <point x="685" y="644"/>
      <point x="454" y="644" type="curve" smooth="yes"/>
    </contour>
    <contour>
      <point x="502" y="382"/>
      <point x="531" y="361"/>
      <point x="540" y="339" type="curve"/>
      <point x="503" y="164" type="line"/>
      <point x="474" y="135"/>
      <point x="440" y="120"/>
      <point x="404" y="120" type="curve" smooth="yes"/>
      <point x="357" y="120"/>
      <point x="330" y="146"/>
      <point x="330" y="221" type="curve" smooth="yes"/>
      <point x="330" y="317"/>
      <point x="376" y="382"/>
      <point x="456" y="382" type="curve" smooth="yes"/>
    </contour>
  </outline>
</glyph>
<glyph name="P" format="1">
  <advance width="680"/>
  <unicode hex="0050"/>
  <outline>
    <contour>
      <point x="579" y="270"/>
      <point x="650" y="340"/>
      <point x="650" y="475" type="curve" smooth="yes"/>
      <point x="650" y="610"/>
      <point x="582" y="680"/>
      <point x="453" y="680" type="curve" smooth="yes"/>
      <point x="55" y="680" type="line"/>
      <point x="55" y="623" type="line"/>
      <point x="129" y="594" type="line"/>
      <point x="129" y="86" type="line"/>
      <point x="55" y="55" type="line"/>
      <point x="55" y="0" type="line"/>
      <point x="289" y="0" type="line"/>
      <point x="289" y="55" type="line"/>
      <point x="215" y="86" type="line"/>
      <point x="215" y="270" type="line"/>
      <point x="444" y="270" type="line" smooth="yes"/>
    </contour>
    <contour>
      <point x="560" y="381"/>
      <point x="525" y="342"/>
      <point x="435" y="342" type="curve" smooth="yes"/>
      <point x="215" y="342" type="line"/>
      <point x="215" y="608" type="line"/>
      <point x="445" y="608" type="line" smooth="yes"/>
      <point x="525" y="608"/>
      <point x="560" y="569"/>
      <point x="560" y="475" type="curve" smooth="yes"/>
    </contour>
  </outline>
</glyph>
<glyph name="d" format="1">
  <advance width="624"/>
  <unicode hex="0064"/>
  <outline>
    <contour>
      <point x="369" y="710" type="line"/>
      <point x="369" y="653" type="line"/>
      <point x="437" y="625" type="line"/>
      <point x="437" y="451" type="line"/>
      <point x="447" y="455" type="line"/>
      <point x="376" y="499"/>
      <point x="317" y="516"/>
      <point x="254" y="516" type="curve" smooth="yes"/>
      <point x="128" y="516"/>
      <point x="46" y="446"/>
      <point x="46" y="249" type="curve" smooth="yes"/>
      <point x="46" y="47"/>
      <point x="115" y="-10"/>
      <point x="245" y="-10" type="curve" smooth="yes"/>
      <point x="336" y="-10"/>
      <point x="401" y="21"/>
      <point x="460" y="90" type="curve"/>
      <point x="437" y="90" type="line"/>
      <point x="470" y="0" type="line"/>
      <point x="589" y="0" type="line"/>
      <point x="589" y="55" type="line"/>
      <point x="521" y="85" type="line"/>
      <point x="521" y="710" type="line"/>
    </contour>
    <contour>
      <point x="326" y="443"/>
      <point x="373" y="425"/>
      <point x="437" y="402" type="curve"/>
      <point x="437" y="128" type="line"/>
      <point x="384" y="86"/>
      <point x="328" y="63"/>
      <point x="262" y="63" type="curve" smooth="yes"/>
      <point x="175" y="63"/>
      <point x="134" y="101"/>
      <point x="134" y="241" type="curve" smooth="yes"/>
      <point x="134" y="374"/>
      <point x="171" y="443"/>
      <point x="274" y="443" type="curve" smooth="yes"/>
    </contour>
    <contour>
      <point x="312" y="251" type="move" name="center"/>
    </contour>
    <contour>
      <point x="479" y="680" type="move" name="top"/>
    </contour>
    <contour>
      <point x="604" y="502" type="move" name="topright"/>
    </contour>
  </outline>
</glyph>
<glyph name="s" format="1">
  <advance width="526"/>
  <unicode hex="0073"/>
  <outline>
    <contour>
      <point x="87" y="516"/>
      <point x="40" y="471"/>
      <point x="40" y="366" type="curve" smooth="yes"/>
      <point x="40" y="268"/>
      <point x="76" y="241"/>
      <point x="212" y="216" type="curve" smooth="yes"/>
      <point x="353" y="190"/>
      <point x="398" y="198"/>
      <point x="398" y="130" type="curve" smooth="yes"/>
      <point x="398" y="73"/>
      <point x="374" y="56"/>
      <point x="251" y="56" type="curve" smooth="yes"/>
      <point x="197" y="56"/>
      <point x="165" y="59"/>
      <point x="108" y="70" type="curve"/>
      <point x="146" y="31" type="line"/>
      <point x="106" y="150" type="line"/>
      <point x="46" y="150" type="line"/>
      <point x="46" y="6" type="line"/>
      <point x="129" y="-8"/>
      <point x="182" y="-14"/>
      <point x="248" y="-14" type="curve" smooth="yes"/>
      <point x="439" y="-14"/>
      <point x="486" y="34"/>
      <point x="486" y="142" type="curve" smooth="yes"/>
      <point x="486" y="228"/>
      <point x="463" y="259"/>
      <point x="325" y="284" type="curve" smooth="yes"/>
      <point x="166" y="313"/>
      <point x="128" y="311"/>
      <point x="128" y="374" type="curve" smooth="yes"/>
      <point x="128" y="427"/>
      <point x="154" y="446"/>
      <point x="258" y="446" type="curve" smooth="yes"/>
      <point x="316" y="446"/>
      <point x="353" y="441"/>
      <point x="406" y="431" type="curve"/>
      <point x="369" y="476" type="line"/>
      <point x="410" y="357" type="line"/>
      <point x="468" y="357" type="line"/>
      <point x="468" y="496" type="line"/>
      <point x="385" y="510"/>
      <point x="326" y="516"/>
      <point x="262" y="516" type="curve" smooth="yes"/>
    </contour>
    <contour>
      <point x="263" y="502" type="move" name="top"/>
    </contour>
    <contour>
      <point x="263" y="0" type="move" name="bottom"/>
    </contour>
  </outline>
</glyph>
<glyph name="t" format="1">
  <advance width="409"/>
  <unicode hex="0074"/>
  <outline>
    <contour>
      <point x="309" y="-9"/>
      <point x="341" y="-6"/>
      <point x="369" y="1" type="curve"/>
      <point x="369" y="71" type="line"/>
      <point x="345" y="66"/>
      <point x="320" y="63"/>
      <point x="285" y="64" type="curve" smooth="yes"/>
      <point x="211" y="66"/>
      <point x="188" y="85"/>
      <point x="188" y="163" type="curve" smooth="yes"/>
      <point x="188" y="432" type="line"/>
      <point x="359" y="431" type="line"/>
      <point x="359" y="501" type="line"/>
      <point x="188" y="502" type="line"/>
      <point x="188" y="647" type="line"/>
      <point x="134" y="647" type="line"/>
      <point x="104" y="502" type="line"/>
      <point x="26" y="488" type="line"/>
      <point x="26" y="432" type="line"/>
      <point x="104" y="432" type="line"/>
      <point x="104" y="163" type="line" smooth="yes"/>
      <point x="104" y="42"/>
      <point x="153" y="-5"/>
      <point x="268" y="-8" type="curve" smooth="yes"/>
    </contour>
    <contour>
      <point x="181" y="251" type="move" name="center"/>
    </contour>
    <contour>
      <point x="213" y="10" type="move" name="bottom"/>
    </contour>
    <contour>
      <point x="270" y="502" type="move" name="topright"/>
    </contour>
  </outline>
</glyph>
<glyph name="x" format="1">
  <advance width="632"/>
  <unicode hex="0078"/>
  <outline>
    <contour>
      <point x="25" y="502" type="line"/>
      <point x="25" y="445" type="line"/>
      <point x="83" y="417" type="line"/>
      <point x="439" y="85" type="line"/>
      <point x="381" y="55" type="line"/>
      <point x="381" y="0" type="line"/>
      <point x="607" y="0" type="line"/>
      <point x="607" y="55" type="line"/>
      <point x="547" y="85" type="line"/>
      <point x="192" y="417" type="line"/>
      <point x="250" y="445" type="line"/>
      <point x="250" y="502" type="line"/>
    </contour>
    <contour>
      <point x="85" y="85" type="line"/>
      <point x="25" y="55" type="line"/>
      <point x="25" y="0" type="line"/>
      <point x="235" y="0" type="line"/>
      <point x="235" y="55" type="line"/>
      <point x="177" y="85" type="line"/>
      <point x="325" y="229" type="line"/>
      <point x="274" y="258" type="line"/>
    </contour>
    <contour>
      <point x="399" y="502" type="line"/>
      <point x="399" y="445" type="line"/>
      <point x="457" y="417" type="line"/>
      <point x="309" y="275" type="line"/>
      <point x="357" y="243" type="line"/>
      <point x="549" y="417" type="line"/>
      <point x="607" y="445" type="line"/>
      <point x="607" y="502" type="line"/>
    </contour>
  </outline>
</glyph>
<glyph name="y" format="1">
  <advance width="637"/>
  <unicode hex="0079"/>
  <outline>
    <contour>
      <point x="389" y="502" type="line"/>
      <point x="389" y="446" type="line"/>
      <point x="470" y="419" type="line"/>
      <point x="303" y="38" type="line"/>
      <point x="354" y="38" type="line"/>
      <point x="184" y="419" type="line"/>
      <point x="265" y="446" type="line"/>
      <point x="265" y="502" type="line"/>
      <point x="10" y="502" type="line"/>
      <point x="10" y="446" type="line"/>
      <point x="92" y="418" type="line"/>
      <point x="304" y="-45" type="line"/>
      <point x="294" y="22" type="line"/>
      <point x="223" y="-138"/>
      <point x="197" y="-153"/>
      <point x="124" y="-153" type="curve" smooth="yes"/>
      <point x="101" y="-153"/>
      <point x="76" y="-152"/>
      <point x="51" y="-150" type="curve"/>
      <point x="51" y="-224" type="line"/>
      <point x="71" y="-224" type="line" smooth="yes"/>
      <point x="219" y="-224"/>
      <point x="275" y="-185"/>
      <point x="324" y="-75" type="curve" smooth="yes"/>
      <point x="545" y="418" type="line"/>
      <point x="627" y="446" type="line"/>
      <point x="627" y="502" type="line"/>
    </contour>
    <contour>
      <point x="329" y="502" type="move" name="top"/>
    </contour>
  </outline>
</glyph>
<glyph name="cent" format="1">
  <advance width="525"/>
  <unicode hex="00A2"/>
  <outline>
    <contour>
      <point x="326" y="652" type="line"/>
      <point x="219" y="-102" type="line"/>
      <point x="283" y="-102" type="line"/>
      <point x="390" y="652" type="line"/>
    </contour>
    <contour>
      <point x="149" y="528"/>
      <point x="50" y="457"/>
      <point x="50" y="273" type="curve" smooth="yes"/>
      <point x="50" y="78"/>
      <point x="157" y="20"/>
      <point x="315" y="20" type="curve" smooth="yes"/>
      <point x="373" y="20"/>
      <point x="432" y="29"/>
      <point x="475" y="46" type="curve"/>
      <point x="475" y="116" type="line"/>
      <point x="423" y="98"/>
      <point x="378" y="92"/>
      <point x="319" y="92" type="curve" smooth="yes"/>
      <point x="192" y="92"/>
      <point x="138" y="125"/>
      <point x="138" y="276" type="curve" smooth="yes"/>
      <point x="138" y="414"/>
      <point x="177" y="458"/>
      <point x="350" y="458" type="curve"/>
      <point x="392" y="363" type="line"/>
      <point x="457" y="363"/>
      <point x="485" y="393"/>
      <point x="485" y="444" type="curve" smooth="yes"/>
      <point x="485" y="500"/>
      <point x="449" y="528"/>
      <point x="333" y="528" type="curve" smooth="yes"/>
    </contour>
  </outline>
</glyph>
<glyph name="paragraph" format="1">
  <advance width="680"/>
  <unicode hex="00B6"/>
  <outline>
    <contour>
      <point x="230" y="680" type="line" smooth="yes"/>
      <point x="89" y="680"/>
      <point x="30" y="621"/>
      <point x="30" y="475" type="curve" smooth="yes"/>
      <point x="30" y="329"/>
      <point x="89" y="270"/>
      <point x="230" y="270" type="curve" smooth="yes"/>
      <point x="306" y="270" type="line"/>
      <point x="306" y="0" type="line"/>
      <point x="382" y="0" type="line"/>
      <point x="382" y="608" type="line"/>
      <point x="476" y="608" type="line"/>
      <point x="476" y="0" type="line"/>
      <point x="551" y="0" type="line"/>
      <point x="551" y="594" type="line"/>
      <point x="625" y="623" type="line"/>
      <point x="625" y="680" type="line"/>
    </contour>
  </outline>
</glyph>
<glyph name="guillemotright" format="1">
  <advance width="407"/>
  <unicode hex="00BB"/>
  <outline>
    <contour>
      <point x="192" y="452" type="line"/>
      <point x="299" y="261" type="line"/>
      <point x="192" y="70" type="line"/>
      <point x="284" y="70" type="line"/>
      <point x="385" y="251" type="line"/>
      <point x="385" y="271" type="line"/>
      <point x="284" y="452" type="line"/>
    </contour>
    <contour>
      <point x="20" y="452" type="line"/>
      <point x="127" y="261" type="line"/>
      <point x="20" y="70" type="line"/>
      <point x="112" y="70" type="line"/>
      <point x="213" y="251" type="line"/>
      <point x="213" y="271" type="line"/>
      <point x="112" y="452" type="line"/>
    </contour>
  </outline>
</glyph>
<glyph name="Oslash" format="1">
  <advance width="728"/>
  <unicode hex="00D8"/>
  <outline>
    <contour>
      <point x="584" y="705" type="line"/>
      <point x="52" y="-25" type="line"/>
      <point x="145" y="-25" type="line"/>
      <point x="676" y="705" type="line"/>
    </contour>
    <component base="O"/>
  </outline>
</glyph>
<glyph name="gcommaaccent" format="1">
  <advance width="556"/>
  <unicode hex="0123"/>
  <outline>
    <contour>
      <point x="336" y="777" type="line"/>
      <point x="272" y="777" type="line"/>
      <point x="242" y="577" type="line"/>
      <point x="336" y="577" type="line"/>
    </contour>
    <component base="g"/>
  </outline>
</glyph>
<glyph name="Delta" format="1">
  <advance width="662"/>
  <unicode hex="0394"/>
  <outline>
    <contour>
      <point x="270" y="680" type="line"/>
      <point x="10" y="55" type="line"/>
      <point x="10" y="0" type="line"/>
      <point x="652" y="0" type="line"/>
      <point x="652" y="55" type="line"/>
      <point x="385" y="680" type="line"/>
    </contour>
    <contour>
      <point x="566" y="52" type="line"/>
      <point x="565" y="71" type="line"/>
      <point x="72" y="71" type="line"/>
      <point x="87" y="52" type="line"/>
      <point x="333" y="643" type="line"/>
      <point x="313" y="643" type="line"/>
    </contour>
  </outline>
</glyph>
<glyph name="mu" format="1">
  <advance width="634"/>
  <unicode hex="03BC"/>
  <outline>
    <contour>
      <point x="447" y="502" type="line"/>
      <point x="447" y="100" type="line"/>
      <point x="377" y="75"/>
      <point x="332" y="59"/>
      <point x="281" y="59" type="curve" smooth="yes"/>
      <point x="210" y="59"/>
      <point x="169" y="90"/>
      <point x="169" y="171" type="curve" smooth="yes"/>
      <point x="169" y="502" type="line"/>
      <point x="85" y="502" type="line"/>
      <point x="85" y="-224" type="line"/>
      <point x="171" y="-224" type="line"/>
      <point x="171" y="1" type="line"/>
      <point x="195" y="-10"/>
      <point x="223" y="-14"/>
      <point x="254" y="-14" type="curve"/>
      <point x="328" y="-14"/>
      <point x="397" y="5"/>
      <point x="490" y="56" type="curve"/>
      <point x="452" y="56" type="line"/>
      <point x="488" y="0" type="line"/>
      <point x="599" y="0" type="line"/>
      <point x="599" y="55" type="line"/>
      <point x="531" y="85" type="line"/>
      <point x="531" y="502" type="line"/>
    </contour>
  </outline>
</glyph>
<glyph name="ca-deva" format="1">
  <advance width="660"/>
  <unicode hex="091A"/>
  <outline>
    <contour>
      <point x="-10" y="680" type="line"/>
      <point x="-10" y="604" type="line"/>
      <point x="670" y="604" type="line"/>
      <point x="670" y="680" type="line"/>
    </contour>
    <contour>
      <point x="496" y="0" type="line"/>
      <point x="564" y="0" type="line"/>
      <point x="564" y="614" type="line"/>
      <point x="496" y="614" type="line"/>
    </contour>
    <contour>
      <point x="0" y="491" type="line"/>
      <point x="0" y="413" type="line"/>
      <point x="416" y="413" type="line"/>
      <point x="416" y="491" type="line"/>
    </contour>
    <contour>
      <point x="458" y="230"/>
      <point x="375" y="195"/>
      <point x="289" y="195" type="curve" smooth="yes"/>
      <point x="200" y="195"/>
      <point x="150" y="233"/>
      <point x="150" y="304" type="curve" smooth="yes"/>
      <point x="150" y="359"/>
      <point x="180" y="406"/>
      <point x="227" y="423" type="curve"/>
      <point x="149" y="423" type="line"/>
      <point x="105" y="402"/>
      <point x="84" y="357"/>
      <point x="84" y="296" type="curve" smooth="yes"/>
      <point x="84" y="181"/>
      <point x="160" y="113"/>
      <point x="293" y="113" type="curve" smooth="yes"/>
      <point x="392" y="113"/>
      <point x="474" y="151"/>
      <point x="506" y="205" type="curve"/>
      <point x="506" y="289" type="line"/>
    </contour>
    <contour>
      <point x="114" y="0" type="move" name="nukta"/>
    </contour>
    <contour>
      <point x="530" y="0" type="move" name="bottom"/>
    </contour>
    <contour>
      <point x="530" y="680" type="move" name="top"/>
    </contour>
  </outline>
</glyph>
<glyph name="dda-deva" format="1">
  <advance width="529"/>
  <unicode hex="0921"/>
  <outline>
    <contour>
      <point x="422" y="-8"/>
      <point x="485" y="51"/>
      <point x="485" y="169" type="curve" smooth="yes"/>
      <point x="485" y="246"/>
      <point x="458" y="308"/>
      <point x="356" y="308" type="curve" smooth="yes"/>
      <point x="292" y="308"/>
      <point x="235" y="284"/>
      <point x="181" y="284" type="curve" smooth="yes"/>
      <point x="135" y="284"/>
      <point x="113" y="302"/>
      <point x="113" y="355" type="curve" smooth="yes"/>
      <point x="113" y="406"/>
      <point x="134" y="423"/>
      <point x="203" y="423" type="curve" smooth="yes"/>
      <point x="444" y="423" type="line"/>
      <point x="444" y="614" type="line"/>
      <point x="376" y="614" type="line"/>
      <point x="376" y="484" type="line"/>
      <point x="396" y="501" type="line"/>
      <point x="195" y="501" type="line" smooth="yes"/>
      <point x="83" y="501"/>
      <point x="41" y="452"/>
      <point x="41" y="360" type="curve" smooth="yes"/>
      <point x="41" y="261"/>
      <point x="89" y="204"/>
      <point x="182" y="204" type="curve" smooth="yes"/>
      <point x="242" y="204"/>
      <point x="306" y="228"/>
      <point x="352" y="228" type="curve" smooth="yes"/>
      <point x="393" y="228"/>
      <point x="413" y="209"/>
      <point x="413" y="162" type="curve" smooth="yes"/>
      <point x="413" y="102"/>
      <point x="381" y="74"/>
      <point x="265" y="74" type="curve" smooth="yes"/>
      <point x="180" y="74"/>
      <point x="102" y="89"/>
      <point x="33" y="123" type="curve"/>
      <point x="33" y="41" type="line"/>
      <point x="84" y="11"/>
      <point x="179" y="-8"/>
      <point x="267" y="-8" type="curve" smooth="yes"/>
    </contour>
    <contour>
      <point x="539" y="604" type="line"/>
      <point x="539" y="680" type="line"/>
      <point x="-10" y="680" type="line"/>
      <point x="-10" y="604" type="line"/>
    </contour>
    <contour>
      <point x="268" y="-120" type="move" name="nukta"/>
    </contour>
    <contour>
      <point x="268" y="0" type="move" name="bottom"/>
    </contour>
    <contour>
      <point x="410" y="680" type="move" name="top"/>
    </contour>
  </outline>
</glyph>
<glyph name="da-deva" format="1">
  <advance width="543"/>
  <unicode hex="0926"/>
  <outline>
    <contour>
      <point x="-10" y="680" type="line"/>
      <point x="-10" y="604" type="line"/>
      <point x="553" y="604" type="line"/>
      <point x="553" y="680" type="line"/>
    </contour>
    <contour>
      <point x="416" y="57"/>
      <point x="490" y="99"/>
      <point x="490" y="180" type="curve" smooth="yes"/>
      <point x="490" y="231"/>
      <point x="461" y="251"/>
      <point x="402" y="251" type="curve"/>
      <point x="357" y="123" type="line"/>
      <point x="402" y="123" type="line"/>
      <point x="402" y="-50" type="line"/>
      <point x="470" y="-50" type="line"/>
      <point x="470" y="162" type="line"/>
      <point x="404" y="172" type="line"/>
      <point x="376" y="144"/>
      <point x="325" y="139"/>
      <point x="275" y="139" type="curve" smooth="yes"/>
      <point x="142" y="139"/>
      <point x="102" y="174"/>
      <point x="102" y="276" type="curve" smooth="yes"/>
      <point x="102" y="374"/>
      <point x="138" y="408"/>
      <point x="264" y="408" type="curve" smooth="yes"/>
      <point x="454" y="408" type="line"/>
      <point x="454" y="614" type="line"/>
      <point x="386" y="614" type="line"/>
      <point x="386" y="486" type="line"/>
      <point x="253" y="486" type="line" smooth="yes"/>
      <point x="93" y="486"/>
      <point x="30" y="421"/>
      <point x="30" y="280" type="curve" smooth="yes"/>
      <point x="30" y="112"/>
      <point x="120" y="57"/>
      <point x="278" y="57" type="curve" smooth="yes"/>
    </contour>
    <contour>
      <point x="252" y="-65" type="move" name="nukta"/>
    </contour>
    <contour>
      <point x="252" y="0" type="move" name="bottom"/>
    </contour>
    <contour>
      <point x="420" y="680" type="move" name="top"/>
    </contour>
  </outline>
</glyph>
<glyph name="ba-deva" format="1">
  <advance width="594"/>
  <unicode hex="092C"/>
  <outline>
    <contour>
      <point x="351" y="104"/>
      <point x="398" y="120"/>
      <point x="444" y="143" type="curve"/>
      <point x="444" y="208" type="line"/>
      <point x="397" y="188"/>
      <point x="349" y="182"/>
      <point x="280" y="182" type="curve" smooth="yes"/>
      <point x="142" y="182"/>
      <point x="107" y="206"/>
      <point x="107" y="303" type="curve" smooth="yes"/>
      <point x="107" y="400"/>
      <point x="143" y="424"/>
      <point x="277" y="424" type="curve" smooth="yes"/>
      <point x="355" y="424"/>
      <point x="398" y="416"/>
      <point x="444" y="397" type="curve"/>
      <point x="444" y="465" type="line"/>
      <point x="396" y="487"/>
      <point x="349" y="502"/>
      <point x="266" y="502" type="curve" smooth="yes"/>
      <point x="114" y="502"/>
      <point x="39" y="452"/>
      <point x="39" y="303" type="curve" smooth="yes"/>
      <point x="39" y="155"/>
      <point x="112" y="104"/>
      <point x="265" y="104" type="curve" smooth="yes"/>
    </contour>
    <contour>
      <point x="461" y="170" type="line"/>
      <point x="178" y="440" type="line"/>
      <point x="91" y="440" type="line"/>
      <point x="374" y="170" type="line"/>
    </contour>
    <contour>
      <point x="498" y="0" type="line"/>
      <point x="498" y="614" type="line"/>
      <point x="430" y="614" type="line"/>
      <point x="430" y="0" type="line"/>
    </contour>
    <contour>
      <point x="604" y="604" type="line"/>
      <point x="604" y="680" type="line"/>
      <point x="-10" y="680" type="line"/>
      <point x="-10" y="604" type="line"/>
    </contour>
    <contour>
      <point x="75" y="0" type="move" name="nukta"/>
    </contour>
    <contour>
      <point x="464" y="0" type="move" name="bottom"/>
    </contour>
    <contour>
      <point x="464" y="680" type="move" name="top"/>
    </contour>
  </outline>
</glyph>
<glyph name="ra-deva" format="1">
  <advance width="397"/>
  <unicode hex="0930"/>
  <outline>
    <contour>
      <point x="193" y="614" type="line"/>
      <point x="225" y="579"/>
      <point x="254" y="515"/>
      <point x="254" y="454" type="curve" smooth="yes"/>
      <point x="254" y="365"/>
      <point x="193" y="347"/>
      <point x="75" y="347" type="curve" smooth="yes"/>
      <point x="35" y="347" type="line"/>
      <point x="35" y="279" type="line"/>
      <point x="245" y="0" type="line"/>
      <point x="338" y="0" type="line"/>
      <point x="338" y="1" type="line"/>
      <point x="102" y="305" type="line"/>
      <point x="102" y="269" type="line"/>
      <point x="261" y="269"/>
      <point x="326" y="315"/>
      <point x="326" y="441" type="curve" smooth="yes"/>
      <point x="326" y="509"/>
      <point x="307" y="576"/>
      <point x="287" y="614" type="curve"/>
    </contour>
    <contour>
      <point x="-10" y="680" type="line"/>
      <point x="-10" y="604" type="line"/>
      <point x="412" y="604" type="line"/>
      <point x="412" y="680" type="line"/>
    </contour>
    <contour>
      <point x="70" y="0" type="move" name="nukta"/>
    </contour>
    <contour>
      <point x="284" y="20" type="move" name="bottom"/>
    </contour>
    <contour>
      <point x="236" y="680" type="move" name="top"/>
    </contour>
  </outline>
</glyph>
<glyph name="sa-deva" format="1">
  <advance width="675"/>
  <unicode hex="0938"/>
  <outline>
    <contour>
      <point x="338" y="0" type="line"/>
      <point x="338" y="1" type="line"/>
      <point x="102" y="305" type="line"/>
      <point x="102" y="269" type="line"/>
      <point x="236" y="269"/>
      <point x="288" y="318"/>
      <point x="288" y="444" type="curve" smooth="yes"/>
      <point x="288" y="511"/>
      <point x="273" y="579"/>
      <point x="256" y="617" type="curve"/>
      <point x="156" y="617" type="line"/>
      <point x="189" y="582"/>
      <point x="216" y="519"/>
      <point x="216" y="454" type="curve" smooth="yes"/>
      <point x="216" y="365"/>
      <point x="165" y="347"/>
      <point x="78" y="347" type="curve" smooth="yes"/>
      <point x="35" y="347" type="line"/>
      <point x="35" y="279" type="line"/>
      <point x="245" y="0" type="line"/>
    </contour>
    <contour>
      <point x="521" y="269" type="line"/>
      <point x="521" y="347" type="line"/>
      <point x="193" y="347" type="line"/>
      <point x="93" y="269" type="line"/>
    </contour>
    <contour>
      <point x="579" y="0" type="line"/>
      <point x="579" y="611" type="line"/>
      <point x="511" y="611" type="line"/>
      <point x="511" y="0" type="line"/>
    </contour>
    <contour>
      <point x="685" y="604" type="line"/>
      <point x="685" y="680" type="line"/>
      <point x="-10" y="680" type="line"/>
      <point x="-10" y="604" type="line"/>
    </contour>
    <contour>
      <point x="70" y="0" type="move" name="nukta"/>
    </contour>
    <contour>
      <point x="545" y="0" type="move" name="bottom"/>
    </contour>
    <contour>
      <point x="545" y="680" type="move" name="top"/>
    </contour>
  </outline>
</glyph>
<glyph name="ha-deva" format="1">
  <advance width="528"/>
  <unicode hex="0939"/>
  <outline>
    <contour>
      <point x="374" y="614" type="line"/>
      <point x="374" y="484" type="line"/>
      <point x="393" y="501" type="line"/>
      <point x="195" y="501" type="line" smooth="yes"/>
      <point x="93" y="501"/>
      <point x="52" y="452"/>
      <point x="52" y="361" type="curve" smooth="yes"/>
      <point x="52" y="264"/>
      <point x="100" y="217"/>
      <point x="193" y="217" type="curve"/>
      <point x="193" y="285" type="line"/>
      <point x="143" y="285"/>
      <point x="124" y="297"/>
      <point x="124" y="355" type="curve" smooth="yes"/>
      <point x="124" y="407"/>
      <point x="140" y="423"/>
      <point x="203" y="423" type="curve" smooth="yes"/>
      <point x="442" y="423" type="line"/>
      <point x="442" y="614" type="line"/>
    </contour>
    <contour>
      <point x="-10" y="680" type="line"/>
      <point x="-10" y="604" type="line"/>
      <point x="538" y="604" type="line"/>
      <point x="538" y="680" type="line"/>
    </contour>
    <contour>
      <point x="138" y="307"/>
      <point x="52" y="236"/>
      <point x="52" y="84" type="curve" smooth="yes"/>
      <point x="52" y="-120"/>
      <point x="207" y="-180"/>
      <point x="442" y="-180" type="curve"/>
      <point x="442" y="-98" type="line"/>
      <point x="250" y="-98"/>
      <point x="124" y="-79"/>
      <point x="124" y="86" type="curve" smooth="yes"/>
      <point x="124" y="181"/>
      <point x="166" y="225"/>
      <point x="298" y="225" type="curve" smooth="yes"/>
      <point x="382" y="225"/>
      <point x="408" y="207"/>
      <point x="408" y="161" type="curve" smooth="yes"/>
      <point x="408" y="117"/>
      <point x="384" y="105"/>
      <point x="308" y="105" type="curve"/>
      <point x="308" y="23" type="line"/>
      <point x="421" y="23"/>
      <point x="480" y="65"/>
      <point x="480" y="164" type="curve" smooth="yes"/>
      <point x="480" y="261"/>
      <point x="423" y="307"/>
      <point x="296" y="307" type="curve" smooth="yes"/>
    </contour>
    <contour>
      <point x="-10" y="680" type="line"/>
      <point x="-10" y="604" type="line"/>
      <point x="538" y="604" type="line"/>
      <point x="538" y="680" type="line"/>
    </contour>
    <contour>
      <point x="52" y="-151" type="move" name="nukta"/>
    </contour>
    <contour>
      <point x="358" y="-150" type="move" name="bottom"/>
    </contour>
    <contour>
      <point x="408" y="680" type="move" name="top"/>
    </contour>
  </outline>
</glyph>
<glyph name="iMatra-deva" format="1">
  <advance width="260"/>
  <unicode hex="093F"/>
  <outline>
    <contour>
      <point x="137" y="953"/>
      <point x="71" y="892"/>
      <point x="71" y="790" type="curve" smooth="yes"/>
      <point x="71" y="750"/>
      <point x="81" y="704"/>
      <point x="98" y="670" type="curve"/>
      <point x="162" y="670" type="line"/>
      <point x="145" y="713"/>
      <point x="139" y="743"/>
      <point x="139" y="776" type="curve" smooth="yes"/>
      <point x="139" y="849"/>
      <point x="168" y="877"/>
      <point x="249" y="877" type="curve" smooth="yes"/>
      <point x="343" y="877"/>
      <point x="427" y="839"/>
      <point x="502" y="741" type="curve"/>
      <point x="502" y="819" type="line"/>
      <point x="438" y="899"/>
      <point x="349" y="953"/>
      <point x="246" y="953" type="curve" smooth="yes"/>
    </contour>
    <component base="aaMatra-deva"/>
    <contour>
      <point x="482" y="741" type="move" name="imatra"/>
    </contour>
    <contour>
      <point x="468" y="811" type="move" name="top"/>
    </contour>
  </outline>
</glyph>
<glyph name="iiMatra-deva" format="1">
  <advance width="260"/>
  <unicode hex="0940"/>
  <outline>
    <contour>
      <point x="-111" y="953"/>
      <point x="-170" y="901"/>
      <point x="-170" y="810" type="curve" smooth="yes"/>
      <point x="-170" y="784"/>
      <point x="-165" y="759"/>
      <point x="-156" y="741" type="curve"/>
      <point x="-98" y="741" type="line"/>
      <point x="-101" y="764"/>
      <point x="-102" y="779"/>
      <point x="-102" y="792" type="curve" smooth="yes"/>
      <point x="-102" y="854"/>
      <point x="-80" y="877"/>
      <point x="-24" y="877" type="curve" smooth="yes"/>
      <point x="63" y="877"/>
      <point x="96" y="823"/>
      <point x="96" y="680" type="curve"/>
      <point x="164" y="680" type="line"/>
      <point x="164" y="853"/>
      <point x="101" y="953"/>
      <point x="-22" y="953" type="curve" smooth="yes"/>
    </contour>
    <component base="aaMatra-deva"/>
    <contour>
      <point x="-127" y="741" type="move" name="iimatra"/>
    </contour>
  </outline>
</glyph>
<glyph name="uuMatra-deva" format="1">
  <advance width="250"/>
  <unicode hex="0942"/>
  <outline>
    <contour>
      <point x="-38" y="-216"/>
      <point x="13" y="-263"/>
      <point x="103" y="-263" type="curve" smooth="yes"/>
      <point x="135" y="-263"/>
      <point x="168" y="-259"/>
      <point x="194" y="-248" type="curve"/>
      <point x="194" y="-176" type="line"/>
      <point x="164" y="-188"/>
      <point x="134" y="-191"/>
      <point x="106" y="-191" type="curve" smooth="yes"/>
      <point x="48" y="-191"/>
      <point x="24" y="-171"/>
      <point x="24" y="-130" type="curve" smooth="yes"/>
      <point x="24" y="-83"/>
      <point x="57" y="-62"/>
      <point x="131" y="-62" type="curve" smooth="yes"/>
      <point x="262" y="-62"/>
      <point x="325" y="-129"/>
      <point x="325" y="-263" type="curve"/>
      <point x="387" y="-263" type="line"/>
      <point x="387" y="-89"/>
      <point x="291" y="10"/>
      <point x="135" y="10" type="curve" smooth="yes"/>
      <point x="23" y="10"/>
      <point x="-38" y="-41"/>
      <point x="-38" y="-132" type="curve" smooth="yes"/>
    </contour>
    <contour>
      <point x="125" y="0" type="move" name="_bottom"/>
    </contour>
  </outline>
</glyph>
<glyph name="aiMatra-deva" format="1">
  <advance width="250"/>
  <unicode hex="0948"/>
  <outline>
    <contour>
      <point x="72" y="820"/>
      <point x="1" y="843"/>
      <point x="-165" y="843" type="curve"/>
      <point x="-165" y="770" type="line"/>
      <point x="49" y="770"/>
      <point x="96" y="753"/>
      <point x="96" y="688" type="curve"/>
      <point x="106" y="688" type="line"/>
      <point x="106" y="774" type="line"/>
    </contour>
    <contour>
      <point x="164" y="940"/>
      <point x="85" y="991"/>
      <point x="-165" y="991" type="curve"/>
      <point x="-165" y="918" type="line"/>
      <point x="40" y="918"/>
      <point x="96" y="895"/>
      <point x="96" y="796" type="curve" smooth="yes"/>
      <point x="96" y="670" type="line"/>
      <point x="164" y="670" type="line"/>
      <point x="164" y="795" type="line" smooth="yes"/>
    </contour>
    <contour>
      <point x="130" y="680" type="move" name="_top"/>
    </contour>
  </outline>
</glyph>
<glyph name="oCandraMatra-deva" format="1">
  <advance width="260"/>
  <unicode hex="0949"/>
  <outline>
    <component base="aaMatra-deva"/>
    <component base="eCandraMatra-deva" xOffset="5"/>
    <contour>
      <point x="125" y="815" type="move" name="top"/>
    </contour>
  </outline>
</glyph>
<glyph name="halant-deva" format="1">
  <advance width="250"/>
  <unicode hex="094D"/>
  <outline>
    <contour>
      <point x="79" y="-69" type="line"/>
      <point x="272" y="-349" type="line"/>
      <point x="360" y="-349" type="line"/>
      <point x="167" y="-69" type="line"/>
    </contour>
    <contour>
      <point x="125" y="0" type="move" name="_bottom"/>
    </contour>
  </outline>
</glyph>
<glyph name="om-deva" format="1">
  <advance width="964"/>
  <unicode hex="0950"/>
  <outline>
    <contour>
      <point x="376" y="54"/>
      <point x="439" y="115"/>
      <point x="439" y="226" type="curve" smooth="yes"/>
      <point x="439" y="254"/>
      <point x="435" y="272"/>
      <point x="428" y="291" type="curve"/>
      <point x="445" y="284"/>
      <point x="464" y="281"/>
      <point x="487" y="281" type="curve" smooth="yes"/>
      <point x="646" y="281"/>
      <point x="623" y="435"/>
      <point x="753" y="435" type="curve" smooth="yes"/>
      <point x="822" y="435"/>
      <point x="860" y="392"/>
      <point x="860" y="308" type="curve" smooth="yes"/>
      <point x="860" y="219"/>
      <point x="817" y="181"/>
      <point x="718" y="181" type="curve" smooth="yes"/>
      <point x="679" y="181"/>
      <point x="623" y="187"/>
      <point x="573" y="206" type="curve"/>
      <point x="573" y="126" type="line"/>
      <point x="620" y="108"/>
      <point x="673" y="101"/>
      <point x="718" y="101" type="curve" smooth="yes"/>
      <point x="864" y="101"/>
      <point x="934" y="176"/>
      <point x="934" y="308" type="curve" smooth="yes"/>
      <point x="934" y="434"/>
      <point x="870" y="515"/>
      <point x="748" y="515" type="curve" smooth="yes"/>
      <point x="574" y="515"/>
      <point x="601" y="351"/>
      <point x="458" y="351" type="curve" smooth="yes"/>
      <point x="423" y="351"/>
      <point x="387" y="361"/>
      <point x="358" y="381" type="curve"/>
      <point x="401" y="405"/>
      <point x="428" y="452"/>
      <point x="428" y="532" type="curve" smooth="yes"/>
      <point x="428" y="638"/>
      <point x="381" y="688"/>
      <point x="248" y="688" type="curve" smooth="yes"/>
      <point x="201" y="688"/>
      <point x="148" y="682"/>
      <point x="104" y="671" type="curve"/>
      <point x="104" y="589" type="line"/>
      <point x="147" y="600"/>
      <point x="199" y="606"/>
      <point x="251" y="606" type="curve" smooth="yes"/>
      <point x="340" y="606"/>
      <point x="356" y="588"/>
      <point x="356" y="523" type="curve" smooth="yes"/>
      <point x="356" y="445"/>
      <point x="333" y="423"/>
      <point x="253" y="423" type="curve" smooth="yes"/>
      <point x="153" y="423" type="line"/>
      <point x="153" y="345" type="line"/>
      <point x="253" y="345" type="line" smooth="yes"/>
      <point x="338" y="345"/>
      <point x="367" y="316"/>
      <point x="367" y="243" type="curve" smooth="yes"/>
      <point x="367" y="164"/>
      <point x="334" y="136"/>
      <point x="222" y="136" type="curve" smooth="yes"/>
      <point x="149" y="136"/>
      <point x="109" y="148"/>
      <point x="61" y="167" type="curve"/>
      <point x="61" y="85" type="line"/>
      <point x="99" y="69"/>
      <point x="161" y="54"/>
      <point x="232" y="54" type="curve" smooth="yes"/>
    </contour>
    <component base="candraBindu-deva" xOffset="487" yOffset="-179"/>
  </outline>
</glyph>
<glyph name="danda-deva" format="1">
  <advance width="440"/>
  <unicode hex="0964"/>
  <outline>
    <contour>
      <point x="255" y="0" type="line"/>
      <point x="255" y="680" type="line"/>
      <point x="185" y="680" type="line"/>
      <point x="185" y="0" type="line"/>
    </contour>
  </outline>
</glyph>
<glyph name="trademark" format="1">
  <advance width="937"/>
  <unicode hex="2122"/>
  <outline>
    <contour>
      <point x="24" y="680" type="line"/>
      <point x="24" y="562" type="line"/>
      <point x="70" y="562" type="line"/>
      <point x="87" y="627" type="line"/>
      <point x="162" y="627" type="line"/>
      <point x="162" y="369" type="line"/>
      <point x="115" y="352" type="line"/>
      <point x="115" y="310" type="line"/>
      <point x="282" y="310" type="line"/>
      <point x="282" y="352" type="line"/>
      <point x="236" y="369" type="line"/>
      <point x="236" y="627" type="line"/>
      <point x="311" y="627" type="line"/>
      <point x="327" y="562" type="line"/>
      <point x="373" y="562" type="line"/>
      <point x="373" y="680" type="line"/>
    </contour>
    <contour>
      <point x="750" y="680" type="line"/>
      <point x="660" y="454" type="line"/>
      <point x="659" y="454" type="line"/>
      <point x="571" y="680" type="line"/>
      <point x="416" y="680" type="line"/>
      <point x="416" y="637" type="line"/>
      <point x="457" y="621" type="line"/>
      <point x="457" y="369" type="line"/>
      <point x="416" y="352" type="line"/>
      <point x="416" y="310" type="line"/>
      <point x="553" y="310" type="line"/>
      <point x="553" y="352" type="line"/>
      <point x="515" y="369" type="line"/>
      <point x="515" y="628" type="line"/>
      <point x="516" y="628" type="line"/>
      <point x="622" y="356" type="line"/>
      <point x="679" y="356" type="line"/>
      <point x="788" y="628" type="line"/>
      <point x="789" y="628" type="line"/>
      <point x="789" y="369" type="line"/>
      <point x="752" y="352" type="line"/>
      <point x="752" y="310" type="line"/>
      <point x="904" y="310" type="line"/>
      <point x="904" y="352" type="line"/>
      <point x="863" y="369" type="line"/>
      <point x="863" y="621" type="line"/>
      <point x="904" y="637" type="line"/>
      <point x="904" y="680" type="line"/>
    </contour>
  </outline>
</glyph>
<glyph name="estimated" format="1">
  <advance width="904"/>
  <unicode hex="212E"/>
  <outline>
    <contour>
      <point x="368" y="58"/>
      <point x="296" y="89"/>
      <point x="255" y="149" type="curve"/>
      <point x="255" y="307" type="line"/>
      <point x="849" y="307" type="line"/>
      <point x="849" y="425"/>
      <point x="812" y="521"/>
      <point x="740" y="588" type="curve" smooth="yes"/>
      <point x="668" y="655"/>
      <point x="571" y="690"/>
      <point x="458" y="690" type="curve" smooth="yes"/>
      <point x="345" y="690"/>
      <point x="247" y="657"/>
      <point x="171" y="594" type="curve" smooth="yes"/>
      <point x="95" y="531"/>
      <point x="55" y="443"/>
      <point x="55" y="338" type="curve" smooth="yes"/>
      <point x="55" y="234"/>
      <point x="95" y="146"/>
      <point x="171" y="83" type="curve" smooth="yes"/>
      <point x="247" y="19"/>
      <point x="348" y="-14"/>
      <point x="464" y="-14" type="curve" smooth="yes"/>
      <point x="626" y="-14"/>
      <point x="753" y="49"/>
      <point x="834" y="169" type="curve"/>
      <point x="670" y="169" type="line"/>
      <point x="632" y="95"/>
      <point x="562" y="58"/>
      <point x="464" y="58" type="curve" smooth="yes"/>
    </contour>
    <contour>
      <point x="649" y="377" type="line"/>
      <point x="255" y="377" type="line"/>
      <point x="255" y="562" type="line"/>
      <point x="304" y="599"/>
      <point x="371" y="618"/>
      <point x="453" y="618" type="curve" smooth="yes"/>
      <point x="534" y="618"/>
      <point x="601" y="600"/>
      <point x="649" y="566" type="curve"/>
    </contour>
  </outline>
</glyph>
<glyph name=".notdef" format="1">
  <advance width="500"/>
  <outline>
    <contour>
      <point x="72" y="700" type="line"/>
      <point x="72" y="0" type="line"/>
      <point x="428" y="0" type="line"/>
      <point x="428" y="700" type="line"/>
    </contour>
    <contour>
      <point x="100" y="629" type="line"/>
      <point x="234" y="350" type="line"/>
      <point x="100" y="71" type="line"/>
    </contour>
    <contour>
      <point x="249" y="317" type="line"/>
      <point x="389" y="28" type="line"/>
      <point x="110" y="28" type="line"/>
    </contour>
    <contour>
      <point x="110" y="672" type="line"/>
      <point x="389" y="672" type="line"/>
      <point x="249" y="383" type="line"/>
    </contour>
    <contour>
      <point x="400" y="629" type="line"/>
      <point x="400" y="71" type="line"/>
      <point x="265" y="350" type="line"/>
    </contour>
  </outline>
</glyph>
<glyph name="aiMatra_anusvara-deva" format="1">
  <advance width="250"/>
  <outline>
    <component base="aiMatra-deva"/>
    <component base="anusvara-deva" xOffset="148" yOffset="73" xScale="0.9" yScale="0.9"/>
    <contour>
      <point x="130" y="680" type="move" name="_top"/>
    </contour>
  </outline>
</glyph>
<glyph name="anusvara-deva.offset" format="1">
  <advance width="250"/>
  <outline>
    <component base="anusvara-deva" xOffset="-5"/>
    <contour>
      <point x="-10" y="680" type="move" name="_top"/>
    </contour>
  </outline>
</glyph>
<glyph name="b_la-deva.loclMAR" format="1">
  <advance width="558"/>
  <outline>
    <contour>
      <point x="462" y="30" type="line"/>
      <point x="462" y="614" type="line"/>
      <point x="400" y="614" type="line"/>
      <point x="400" y="30" type="line"/>
    </contour>
    <contour>
      <point x="568" y="604" type="line"/>
      <point x="568" y="680" type="line"/>
      <point x="-10" y="680" type="line"/>
      <point x="-10" y="604" type="line"/>
    </contour>
    <contour>
      <point x="30" y="207"/>
      <point x="100" y="160"/>
      <point x="240" y="160" type="curve" smooth="yes"/>
      <point x="317" y="160"/>
      <point x="363" y="174"/>
      <point x="408" y="194" type="curve"/>
      <point x="408" y="265" type="line"/>
      <point x="362" y="242"/>
      <point x="321" y="236"/>
      <point x="250" y="236" type="curve" smooth="yes"/>
      <point x="126" y="236"/>
      <point x="92" y="254"/>
      <point x="92" y="351" type="curve" smooth="yes"/>
      <point x="92" y="448"/>
      <point x="126" y="466"/>
      <point x="250" y="466" type="curve" smooth="yes"/>
      <point x="321" y="466"/>
      <point x="362" y="460"/>
      <point x="408" y="437" type="curve"/>
      <point x="408" y="508" type="line"/>
      <point x="363" y="528"/>
      <point x="317" y="542"/>
      <point x="240" y="542" type="curve" smooth="yes"/>
      <point x="100" y="542"/>
      <point x="30" y="495"/>
      <point x="30" y="351" type="curve" smooth="yes"/>
    </contour>
    <contour>
      <point x="85" y="471" type="line"/>
      <point x="348" y="231" type="line"/>
      <point x="426" y="231" type="line"/>
      <point x="164" y="471" type="line"/>
    </contour>
    <component base="la-deva.loclMAR.post" xOffset="-63"/>
  </outline>
</glyph>
<glyph name="ba_ra-deva" format="1">
  <advance width="584"/>
  <note>
	dBRa
  </note>
  <outline>
    <contour>
      <point x="373" y="173" type="line"/>
      <point x="78" y="-100" type="line"/>
      <point x="184" y="-100" type="line"/>
      <point x="473" y="177" type="line"/>
    </contour>
    <component base="ba-deva"/>
    <contour>
      <point x="39" y="45" type="move" name="nukta"/>
    </contour>
    <contour>
      <point x="843" y="1187" type="move" name="top"/>
    </contour>
  </outline>
</glyph>
<glyph name="c_ca-deva" format="1">
  <advance width="1032"/>
  <outline>
    <contour>
      <point x="387" y="113"/>
      <point x="474" y="160"/>
      <point x="515" y="294" type="curve"/>
      <point x="476" y="294" type="line"/>
      <point x="476" y="184"/>
      <point x="550" y="113"/>
      <point x="672" y="113" type="curve" smooth="yes"/>
      <point x="758" y="113"/>
      <point x="843" y="148"/>
      <point x="878" y="205" type="curve"/>
      <point x="878" y="289" type="line"/>
      <point x="840" y="240"/>
      <point x="758" y="195"/>
      <point x="670" y="195" type="curve" smooth="yes"/>
      <point x="590" y="195"/>
      <point x="542" y="233"/>
      <point x="542" y="305" type="curve" smooth="yes"/>
      <point x="542" y="361"/>
      <point x="570" y="408"/>
      <point x="625" y="425" type="curve"/>
      <point x="505" y="425" type="line"/>
      <point x="463" y="256"/>
      <point x="382" y="195"/>
      <point x="280" y="195" type="curve" smooth="yes"/>
      <point x="198" y="195"/>
      <point x="150" y="235"/>
      <point x="150" y="305" type="curve" smooth="yes"/>
      <point x="150" y="361"/>
      <point x="180" y="408"/>
      <point x="227" y="425" type="curve"/>
      <point x="149" y="425" type="line"/>
      <point x="105" y="404"/>
      <point x="84" y="359"/>
      <point x="84" y="298" type="curve" smooth="yes"/>
      <point x="84" y="180"/>
      <point x="161" y="113"/>
      <point x="284" y="113" type="curve" smooth="yes"/>
    </contour>
    <contour>
      <point x="324" y="415" type="line"/>
      <point x="324" y="491" type="line"/>
      <point x="0" y="491" type="line"/>
      <point x="0" y="415" type="line"/>
    </contour>
    <contour>
      <point x="798" y="415" type="line"/>
      <point x="798" y="491" type="line"/>
      <point x="394" y="491" type="line"/>
      <point x="394" y="415" type="line"/>
    </contour>
    <contour>
      <point x="936" y="0" type="line"/>
      <point x="936" y="614" type="line"/>
      <point x="868" y="614" type="line"/>
      <point x="868" y="0" type="line"/>
    </contour>
    <contour>
      <point x="-10" y="680" type="line"/>
      <point x="-10" y="604" type="line"/>
      <point x="1042" y="604" type="line"/>
      <point x="1042" y="680" type="line"/>
    </contour>
    <contour>
      <point x="283" y="0" type="move" name="nukta"/>
    </contour>
    <contour>
      <point x="902" y="0" type="move" name="bottom"/>
    </contour>
    <contour>
      <point x="902" y="680" type="move" name="top"/>
    </contour>
  </outline>
</glyph>
<glyph name="c_cha_va-deva" format="1">
  <advance width="1016"/>
  <outline>
    <contour>
      <point x="417" y="113"/>
      <point x="505" y="169"/>
      <point x="539" y="238" type="curve"/>
      <point x="539" y="322" type="line"/>
      <point x="483" y="239"/>
      <point x="391" y="195"/>
      <point x="295" y="195" type="curve" smooth="yes"/>
      <point x="206" y="195"/>
      <point x="156" y="233"/>
      <point x="156" y="304" type="curve" smooth="yes"/>
      <point x="156" y="359"/>
      <point x="186" y="406"/>
      <point x="233" y="423" type="curve"/>
      <point x="149" y="423" type="line"/>
      <point x="107" y="402"/>
      <point x="84" y="358"/>
      <point x="84" y="296" type="curve" smooth="yes"/>
      <point x="84" y="182"/>
      <point x="162" y="113"/>
      <point x="296" y="113" type="curve" smooth="yes"/>
    </contour>
    <contour>
      <point x="402" y="413" type="line"/>
      <point x="402" y="491" type="line"/>
      <point x="0" y="491" type="line"/>
      <point x="0" y="413" type="line"/>
    </contour>
    <contour>
      <point x="438" y="604" type="line"/>
      <point x="438" y="680" type="line"/>
      <point x="-10" y="680" type="line"/>
      <point x="-10" y="604" type="line"/>
    </contour>
    <component base="ch_va-deva" xOffset="428"/>
    <contour>
      <point x="120" y="0" type="move" name="nukta"/>
    </contour>
  </outline>
</glyph>
<glyph name="candraBindu-deva.offset" format="1">
  <advance width="250"/>
  <outline>
    <component base="candraBindu-deva" xOffset="-5" yOffset="122"/>
    <contour>
      <point x="-40" y="680" type="move" name="_top"/>
    </contour>
  </outline>
</glyph>
<glyph name="candraBindu-deva.reph" format="1">
  <advance width="250"/>
  <outline>
    <contour>
      <point x="93" y="1152"/>
      <point x="74" y="1134"/>
      <point x="74" y="1101" type="curve" smooth="yes"/>
      <point x="74" y="1069"/>
      <point x="93" y="1051"/>
      <point x="125" y="1051" type="curve" smooth="yes"/>
      <point x="157" y="1051"/>
      <point x="176" y="1069"/>
      <point x="176" y="1101" type="curve" smooth="yes"/>
      <point x="176" y="1134"/>
      <point x="157" y="1152"/>
      <point x="125" y="1152" type="curve" smooth="yes"/>
    </contour>
    <contour>
      <point x="211" y="955"/>
      <point x="249" y="991"/>
      <point x="249" y="1064" type="curve"/>
      <point x="201" y="1064" type="line"/>
      <point x="201" y="1029"/>
      <point x="180" y="1011"/>
      <point x="125" y="1011" type="curve" smooth="yes"/>
      <point x="73" y="1011"/>
      <point x="49" y="1027"/>
      <point x="49" y="1064" type="curve"/>
      <point x="1" y="1064" type="line"/>
      <point x="1" y="993"/>
      <point x="37" y="955"/>
      <point x="125" y="955" type="curve" smooth="yes"/>
    </contour>
    <contour>
      <point x="125" y="680" type="move" name="_top"/>
    </contour>
  </outline>
</glyph>
<glyph name="cedilla.case" format="1">
  <advance width="500"/>
  <outline>
    <contour>
      <point x="227" y="-239" type="line" smooth="yes"/>
      <point x="372" y="-239"/>
      <point x="408" y="-213"/>
      <point x="408" y="-139" type="curve" smooth="yes"/>
      <point x="408" y="-76"/>
      <point x="376" y="-50"/>
      <point x="277" y="-50" type="curve"/>
      <point x="277" y="0" type="line"/>
      <point x="223" y="0" type="line"/>
      <point x="223" y="-100" type="line"/>
      <point x="315" y="-100"/>
      <point x="330" y="-107"/>
      <point x="330" y="-139" type="curve" smooth="yes"/>
      <point x="330" y="-176"/>
      <point x="308" y="-184"/>
      <point x="177" y="-184" type="curve"/>
      <point x="177" y="-239" type="line"/>
    </contour>
    <contour>
      <point x="250" y="0" type="move" name="_bottom"/>
    </contour>
  </outline>
</glyph>
<glyph name="ch-deva.POST" format="1">
  <advance width="588"/>
  <outline>
    <contour>
      <point x="598" y="604" type="line"/>
      <point x="598" y="680" type="line"/>
      <point x="-10" y="680" type="line"/>
      <point x="-10" y="604" type="line"/>
    </contour>
    <contour>
      <point x="442" y="519" type="line"/>
      <point x="442" y="624" type="line"/>
      <point x="380" y="624" type="line"/>
      <point x="380" y="519" type="line"/>
    </contour>
    <contour>
      <point x="444" y="127"/>
      <point x="550" y="207"/>
      <point x="550" y="389" type="curve" smooth="yes"/>
      <point x="550" y="535"/>
      <point x="482" y="569"/>
      <point x="410" y="569" type="curve" smooth="yes"/>
      <point x="330" y="569"/>
      <point x="291" y="528"/>
      <point x="291" y="449" type="curve" smooth="yes"/>
      <point x="291" y="362"/>
      <point x="339" y="318"/>
      <point x="414" y="318" type="curve"/>
      <point x="414" y="394" type="line"/>
      <point x="377" y="394"/>
      <point x="354" y="411"/>
      <point x="354" y="447" type="curve" smooth="yes"/>
      <point x="354" y="479"/>
      <point x="371" y="493"/>
      <point x="412" y="493" type="curve" smooth="yes"/>
      <point x="461" y="493"/>
      <point x="484" y="472"/>
      <point x="484" y="392" type="curve" smooth="yes"/>
      <point x="484" y="255"/>
      <point x="416" y="203"/>
      <point x="254" y="203" type="curve" smooth="yes"/>
      <point x="139" y="203"/>
      <point x="118" y="229"/>
      <point x="118" y="271" type="curve" smooth="yes"/>
      <point x="118" y="303"/>
      <point x="130" y="318"/>
      <point x="162" y="318" type="curve" smooth="yes"/>
      <point x="240" y="318" type="line"/>
      <point x="240" y="390" type="line"/>
      <point x="162" y="390" type="line" smooth="yes"/>
      <point x="109" y="390"/>
      <point x="96" y="403"/>
      <point x="96" y="442" type="curve" smooth="yes"/>
      <point x="96" y="480"/>
      <point x="109" y="493"/>
      <point x="181" y="493" type="curve" smooth="yes"/>
      <point x="209" y="493"/>
      <point x="229" y="491"/>
      <point x="252" y="486" type="curve"/>
      <point x="252" y="560" type="line"/>
      <point x="234" y="565"/>
      <point x="206" y="569"/>
      <point x="171" y="569" type="curve" smooth="yes"/>
      <point x="80" y="569"/>
      <point x="30" y="541"/>
      <point x="30" y="454" type="curve" smooth="yes"/>
      <point x="30" y="389"/>
      <point x="58" y="355"/>
      <point x="134" y="343" type="curve"/>
      <point x="134" y="362" type="line"/>
      <point x="76" y="362"/>
      <point x="52" y="319"/>
      <point x="52" y="263" type="curve" smooth="yes"/>
      <point x="52" y="175"/>
      <point x="112" y="127"/>
      <point x="257" y="127" type="curve" smooth="yes"/>
    </contour>
  </outline>
</glyph>
<glyph name="ch_na-deva" format="1">
  <advance width="588"/>
  <note>
	dChNa
  </note>
  <outline>
    <contour>
      <point x="206" y="-60" type="line"/>
      <point x="164" y="-74" type="line"/>
      <point x="397" y="-74" type="line"/>
      <point x="397" y="-2" type="line"/>
      <point x="159" y="-2" type="line" smooth="yes"/>
      <point x="93" y="-2"/>
      <point x="68" y="-29"/>
      <point x="68" y="-83" type="curve" smooth="yes"/>
      <point x="68" y="-138"/>
      <point x="94" y="-164"/>
      <point x="160" y="-165" type="curve"/>
    </contour>
    <contour>
      <point x="442" y="-321" type="line"/>
      <point x="442" y="196" type="line"/>
      <point x="380" y="196" type="line"/>
      <point x="380" y="-321" type="line"/>
    </contour>
    <component base="ch-deva.POST"/>
    <contour>
      <point x="133" y="-322" type="move" name="nukta"/>
    </contour>
    <contour>
      <point x="411" y="-301" type="move" name="bottom"/>
    </contour>
  </outline>
</glyph>
<glyph name="circumflex.case" format="1">
  <advance width="500"/>
  <outline>
    <contour>
      <point x="445" y="740" type="line"/>
      <point x="300" y="914" type="line"/>
      <point x="200" y="914" type="line"/>
      <point x="55" y="740" type="line"/>
      <point x="138" y="740" type="line"/>
      <point x="260" y="851" type="line"/>
      <point x="240" y="851" type="line"/>
      <point x="362" y="740" type="line"/>
    </contour>
    <contour>
      <point x="250" y="680" type="move" name="_top"/>
    </contour>
  </outline>
</glyph>
<glyph name="commaaccent.case" format="1">
  <advance width="500"/>
  <outline>
    <component base="commaaccent"/>
    <contour>
      <point x="250" y="0" type="move" name="_bottom"/>
    </contour>
  </outline>
</glyph>
<glyph name="d_dha-deva" format="1">
  <advance width="652"/>
  <outline>
    <contour>
      <point x="119" y="604" type="line"/>
      <point x="119" y="680" type="line"/>
      <point x="-10" y="680" type="line"/>
      <point x="-10" y="604" type="line"/>
    </contour>
    <contour>
      <point x="360" y="-168"/>
      <point x="446" y="-82"/>
      <point x="454" y="74" type="curve"/>
      <point x="386" y="74" type="line"/>
      <point x="379" y="-43"/>
      <point x="322" y="-94"/>
      <point x="255" y="-94" type="curve" smooth="yes"/>
      <point x="207" y="-94"/>
      <point x="182" y="-69"/>
      <point x="182" y="-28" type="curve" smooth="yes"/>
      <point x="182" y="3"/>
      <point x="197" y="18"/>
      <point x="225" y="42" type="curve" smooth="yes"/>
      <point x="273" y="83" type="line"/>
      <point x="232" y="133" type="line"/>
      <point x="183" y="92" type="line" smooth="yes"/>
      <point x="153" y="67"/>
      <point x="131" y="59"/>
      <point x="105" y="59" type="curve" smooth="yes"/>
      <point x="64" y="59"/>
      <point x="39" y="80"/>
      <point x="39" y="123" type="curve" smooth="yes"/>
      <point x="39" y="151"/>
      <point x="50" y="164"/>
      <point x="71" y="164" type="curve" smooth="yes"/>
      <point x="77" y="164"/>
      <point x="81" y="163"/>
      <point x="84" y="161" type="curve"/>
      <point x="116" y="206" type="line"/>
      <point x="102" y="221"/>
      <point x="84" y="227"/>
      <point x="62" y="227" type="curve" smooth="yes"/>
      <point x="12" y="227"/>
      <point x="-28" y="184"/>
      <point x="-28" y="122" type="curve" smooth="yes"/>
      <point x="-28" y="53"/>
      <point x="22" y="7"/>
      <point x="90" y="7" type="curve" smooth="yes"/>
      <point x="110" y="7"/>
      <point x="127" y="11"/>
      <point x="137" y="17" type="curve"/>
      <point x="122" y="0"/>
      <point x="115" y="-22"/>
      <point x="115" y="-47" type="curve" smooth="yes"/>
      <point x="115" y="-114"/>
      <point x="164" y="-168"/>
      <point x="251" y="-168" type="curve" smooth="yes"/>
    </contour>
    <component base="da-deva" xOffset="109"/>
  </outline>
</glyph>
<glyph name="d_gha-deva" format="1">
  <advance width="618"/>
  <outline>
    <contour>
      <point x="80" y="604" type="line"/>
      <point x="80" y="680" type="line"/>
      <point x="-10" y="680" type="line"/>
      <point x="-10" y="604" type="line"/>
    </contour>
    <contour>
      <point x="326" y="-168"/>
      <point x="412" y="-82"/>
      <point x="420" y="74" type="curve"/>
      <point x="352" y="74" type="line"/>
      <point x="345" y="-43"/>
      <point x="288" y="-94"/>
      <point x="221" y="-94" type="curve" smooth="yes"/>
      <point x="173" y="-94"/>
      <point x="148" y="-69"/>
      <point x="148" y="-28" type="curve" smooth="yes"/>
      <point x="148" y="3"/>
      <point x="163" y="18"/>
      <point x="191" y="42" type="curve" smooth="yes"/>
      <point x="239" y="83" type="line"/>
      <point x="198" y="133" type="line"/>
      <point x="149" y="92" type="line" smooth="yes"/>
      <point x="112" y="61"/>
      <point x="101" y="59"/>
      <point x="89" y="59" type="curve" smooth="yes"/>
      <point x="50" y="59"/>
      <point x="27" y="80"/>
      <point x="27" y="119" type="curve" smooth="yes"/>
      <point x="27" y="149"/>
      <point x="41" y="179"/>
      <point x="138" y="233" type="curve"/>
      <point x="106" y="282" type="line"/>
      <point x="5" y="237"/>
      <point x="-40" y="179"/>
      <point x="-40" y="121" type="curve" smooth="yes"/>
      <point x="-40" y="63"/>
      <point x="4" y="7"/>
      <point x="64" y="7" type="curve" smooth="yes"/>
      <point x="78" y="7"/>
      <point x="93" y="10"/>
      <point x="103" y="17" type="curve"/>
      <point x="88" y="0"/>
      <point x="81" y="-22"/>
      <point x="81" y="-47" type="curve" smooth="yes"/>
      <point x="81" y="-114"/>
      <point x="130" y="-168"/>
      <point x="217" y="-168" type="curve" smooth="yes"/>
    </contour>
    <component base="da-deva" xOffset="70"/>
  </outline>
</glyph>
<glyph name="d_gha_uMatra-deva" format="1">
  <advance width="618"/>
  <outline>
    <contour>
      <point x="456" y="-118"/>
      <point x="483" y="-112"/>
      <point x="510" y="-112" type="curve" smooth="yes"/>
      <point x="557" y="-112"/>
      <point x="578" y="-130"/>
      <point x="578" y="-173" type="curve" smooth="yes"/>
      <point x="578" y="-222"/>
      <point x="548" y="-241"/>
      <point x="481" y="-241" type="curve" smooth="yes"/>
      <point x="428" y="-241"/>
      <point x="365" y="-231"/>
      <point x="293" y="-206" type="curve"/>
      <point x="293" y="-278" type="line"/>
      <point x="346" y="-300"/>
      <point x="423" y="-313"/>
      <point x="481" y="-313" type="curve" smooth="yes"/>
      <point x="588" y="-313"/>
      <point x="646" y="-261"/>
      <point x="646" y="-173" type="curve" smooth="yes"/>
      <point x="646" y="-90"/>
      <point x="598" y="-40"/>
      <point x="516" y="-40" type="curve" smooth="yes"/>
      <point x="487" y="-40"/>
      <point x="453" y="-46"/>
      <point x="426" y="-58" type="curve"/>
      <point x="426" y="-132" type="line"/>
    </contour>
    <component base="d_gha-deva"/>
  </outline>
</glyph>
<glyph name="d_gha_uuMatra-deva" format="1">
  <advance width="618"/>
  <outline>
    <contour>
      <point x="375" y="-261"/>
      <point x="421" y="-308"/>
      <point x="508" y="-308" type="curve" smooth="yes"/>
      <point x="533" y="-308"/>
      <point x="564" y="-304"/>
      <point x="597" y="-293" type="curve"/>
      <point x="597" y="-221" type="line"/>
      <point x="560" y="-233"/>
      <point x="533" y="-236"/>
      <point x="512" y="-236" type="curve" smooth="yes"/>
      <point x="458" y="-236"/>
      <point x="437" y="-217"/>
      <point x="437" y="-175" type="curve" smooth="yes"/>
      <point x="437" y="-127"/>
      <point x="465" y="-107"/>
      <point x="530" y="-107" type="curve" smooth="yes"/>
      <point x="650" y="-107"/>
      <point x="708" y="-175"/>
      <point x="708" y="-308" type="curve"/>
      <point x="770" y="-308" type="line"/>
      <point x="770" y="-134"/>
      <point x="679" y="-35"/>
      <point x="534" y="-35" type="curve" smooth="yes"/>
      <point x="430" y="-35"/>
      <point x="375" y="-86"/>
      <point x="375" y="-177" type="curve" smooth="yes"/>
    </contour>
    <component base="d_gha-deva"/>
  </outline>
</glyph>
<glyph name="dda-deva.post" format="1">
  <advance width="526"/>
  <outline>
    <contour>
      <point x="34" y="148" type="line"/>
      <point x="88" y="120"/>
      <point x="163" y="103"/>
      <point x="260" y="103" type="curve" smooth="yes"/>
      <point x="433" y="103"/>
      <point x="483" y="157"/>
      <point x="483" y="248" type="curve" smooth="yes"/>
      <point x="483" y="325"/>
      <point x="448" y="369"/>
      <point x="365" y="369" type="curve" smooth="yes"/>
      <point x="290" y="369"/>
      <point x="245" y="333"/>
      <point x="172" y="333" type="curve" smooth="yes"/>
      <point x="122" y="333"/>
      <point x="105" y="350"/>
      <point x="105" y="388" type="curve" smooth="yes"/>
      <point x="105" y="425"/>
      <point x="121" y="438"/>
      <point x="192" y="438" type="curve" smooth="yes"/>
      <point x="448" y="438" type="line"/>
      <point x="448" y="615" type="line"/>
      <point x="386" y="615" type="line"/>
      <point x="386" y="496" type="line"/>
      <point x="407" y="510" type="line"/>
      <point x="187" y="510" type="line" smooth="yes"/>
      <point x="97" y="510"/>
      <point x="39" y="484"/>
      <point x="39" y="395" type="curve" smooth="yes"/>
      <point x="39" y="306"/>
      <point x="97" y="259"/>
      <point x="190" y="259" type="curve" smooth="yes"/>
      <point x="271" y="259"/>
      <point x="304" y="295"/>
      <point x="361" y="295" type="curve" smooth="yes"/>
      <point x="399" y="295"/>
      <point x="417" y="279"/>
      <point x="417" y="246" type="curve" smooth="yes"/>
      <point x="417" y="195"/>
      <point x="374" y="179"/>
      <point x="264" y="179" type="curve" smooth="yes"/>
      <point x="165" y="179"/>
      <point x="106" y="192"/>
      <point x="34" y="226" type="curve"/>
    </contour>
    <contour>
      <point x="-10" y="680" type="line"/>
      <point x="-10" y="604" type="line"/>
      <point x="536" y="604" type="line"/>
      <point x="536" y="680" type="line"/>
    </contour>
    <contour>
      <point x="417" y="680" type="move" name="top"/>
    </contour>
  </outline>
</glyph>
<glyph name="ddh_ddha-deva" format="1">
  <advance width="494"/>
  <outline>
    <contour>
      <point x="398" y="-343"/>
      <point x="456" y="-293"/>
      <point x="456" y="-195" type="curve" smooth="yes"/>
      <point x="456" y="-113"/>
      <point x="415" y="-77"/>
      <point x="337" y="-77" type="curve" smooth="yes"/>
      <point x="244" y="-77"/>
      <point x="217" y="-127"/>
      <point x="217" y="-203" type="curve" smooth="yes"/>
      <point x="217" y="-229"/>
      <point x="220" y="-259"/>
      <point x="233" y="-286" type="curve"/>
      <point x="287" y="-286" type="line"/>
      <point x="278" y="-259"/>
      <point x="275" y="-231"/>
      <point x="275" y="-214" type="curve" smooth="yes"/>
      <point x="275" y="-176"/>
      <point x="290" y="-153"/>
      <point x="335" y="-153" type="curve" smooth="yes"/>
      <point x="373" y="-153"/>
      <point x="390" y="-169"/>
      <point x="390" y="-205" type="curve" smooth="yes"/>
      <point x="390" y="-248"/>
      <point x="365" y="-267"/>
      <point x="263" y="-267" type="curve" smooth="yes"/>
      <point x="129" y="-267"/>
      <point x="91" y="-234"/>
      <point x="91" y="-143" type="curve" smooth="yes"/>
      <point x="91" y="-54"/>
      <point x="127" y="-14"/>
      <point x="269" y="-14" type="curve" smooth="yes"/>
      <point x="418" y="-14" type="line"/>
      <point x="418" y="160" type="line"/>
      <point x="356" y="160" type="line"/>
      <point x="356" y="56" type="line"/>
      <point x="259" y="56" type="line" smooth="yes"/>
      <point x="103" y="56"/>
      <point x="25" y="-5"/>
      <point x="25" y="-143" type="curve" smooth="yes"/>
      <point x="25" y="-278"/>
      <point x="99" y="-343"/>
      <point x="258" y="-343" type="curve" smooth="yes"/>
    </contour>
    <component base="ddha-deva.post"/>
    <contour>
      <point x="28" y="-391" type="move" name="nukta"/>
    </contour>
    <contour>
      <point x="271" y="-322" type="move" name="bottom"/>
    </contour>
  </outline>
</glyph>
<glyph name="dha_ra-deva" format="1">
  <advance width="624"/>
  <note>
	dDhRa
  </note>
  <outline>
    <contour>
      <point x="217" y="-100" type="line"/>
      <point x="489" y="151" type="line"/>
      <point x="387" y="151" type="line"/>
      <point x="109" y="-100" type="line"/>
    </contour>
    <component base="dha-deva"/>
  </outline>
</glyph>
<glyph name="eCandraMatra-deva.offset" format="1">
  <advance width="250"/>
  <outline>
    <contour>
      <point x="233" y="852"/>
      <point x="280" y="897"/>
      <point x="280" y="988" type="curve"/>
      <point x="220" y="988" type="line"/>
      <point x="220" y="945"/>
      <point x="194" y="922"/>
      <point x="125" y="922" type="curve" smooth="yes"/>
      <point x="60" y="922"/>
      <point x="30" y="942"/>
      <point x="30" y="988" type="curve"/>
      <point x="-30" y="988" type="line"/>
      <point x="-30" y="899"/>
      <point x="15" y="852"/>
      <point x="125" y="852" type="curve" smooth="yes"/>
    </contour>
    <contour>
      <point x="125" y="934" type="move" name="top"/>
    </contour>
    <contour>
      <point x="-40" y="680" type="move" name="_top"/>
    </contour>
  </outline>
</glyph>
<glyph name="eCandraMatra-deva.reph" format="1">
  <advance width="250"/>
  <outline>
    <contour>
      <point x="211" y="955"/>
      <point x="249" y="991"/>
      <point x="249" y="1064" type="curve"/>
      <point x="201" y="1064" type="line"/>
      <point x="201" y="1029"/>
      <point x="180" y="1011"/>
      <point x="125" y="1011" type="curve" smooth="yes"/>
      <point x="73" y="1011"/>
      <point x="49" y="1027"/>
      <point x="49" y="1064" type="curve"/>
      <point x="1" y="1064" type="line"/>
      <point x="1" y="993"/>
      <point x="37" y="955"/>
      <point x="125" y="955" type="curve" smooth="yes"/>
    </contour>
    <contour>
      <point x="125" y="680" type="move" name="_top"/>
    </contour>
  </outline>
</glyph>
<glyph name="eMatra_anusvara-deva" format="1">
  <advance width="250"/>
  <outline>
    <component base="eMatra-deva"/>
    <component base="anusvara-deva" xOffset="137"/>
    <contour>
      <point x="130" y="680" type="move" name="_top"/>
    </contour>
  </outline>
</glyph>
<glyph name="equal.lf" format="1">
  <advance width="646"/>
  <outline>
    <contour>
      <point x="70" y="507" type="line"/>
      <point x="70" y="429" type="line"/>
      <point x="576" y="429" type="line"/>
      <point x="576" y="507" type="line"/>
    </contour>
    <contour>
      <point x="70" y="251" type="line"/>
      <point x="70" y="173" type="line"/>
      <point x="576" y="173" type="line"/>
      <point x="576" y="251" type="line"/>
    </contour>
  </outline>
</glyph>
<glyph name="euro.lf" format="1">
  <advance width="644"/>
  <outline>
    <contour>
      <point x="219" y="692"/>
      <point x="95" y="580"/>
      <point x="95" y="340" type="curve" smooth="yes"/>
      <point x="95" y="100"/>
      <point x="219" y="-12"/>
      <point x="428" y="-12" type="curve" smooth="yes"/>
      <point x="484" y="-12"/>
      <point x="554" y="-2"/>
      <point x="599" y="12" type="curve"/>
      <point x="599" y="86" type="line"/>
      <point x="532" y="67"/>
      <point x="480" y="62"/>
      <point x="424" y="62" type="curve" smooth="yes"/>
      <point x="262" y="63"/>
      <point x="181" y="142"/>
      <point x="181" y="340" type="curve" smooth="yes"/>
      <point x="181" y="538"/>
      <point x="262" y="617"/>
      <point x="424" y="618" type="curve" smooth="yes"/>
      <point x="480" y="618"/>
      <point x="532" y="613"/>
      <point x="599" y="594" type="curve"/>
      <point x="599" y="668" type="line"/>
      <point x="554" y="682"/>
      <point x="484" y="692"/>
      <point x="428" y="692" type="curve" smooth="yes"/>
    </contour>
    <contour>
      <point x="20" y="294" type="line"/>
      <point x="20" y="222" type="line"/>
      <point x="506" y="222" type="line"/>
      <point x="496" y="294" type="line"/>
    </contour>
    <contour>
      <point x="20" y="458" type="line"/>
      <point x="20" y="386" type="line"/>
      <point x="496" y="386" type="line"/>
      <point x="496" y="458" type="line"/>
    </contour>
  </outline>
</glyph>
<glyph name="f_f_i" format="1">
  <advance width="1030"/>
  <outline>
    <contour>
      <point x="291" y="0" type="line"/>
      <point x="291" y="55" type="line"/>
      <point x="198" y="85" type="line"/>
      <point x="198" y="432" type="line"/>
      <point x="466" y="432" type="line"/>
      <point x="466" y="85" type="line"/>
      <point x="398" y="55" type="line"/>
      <point x="398" y="0" type="line"/>
      <point x="643" y="0" type="line"/>
      <point x="643" y="55" type="line"/>
      <point x="550" y="85" type="line"/>
      <point x="550" y="432" type="line"/>
      <point x="818" y="432" type="line"/>
      <point x="818" y="85" type="line"/>
      <point x="750" y="55" type="line"/>
      <point x="750" y="0" type="line"/>
      <point x="995" y="0" type="line"/>
      <point x="995" y="55" type="line"/>
      <point x="902" y="85" type="line"/>
      <point x="902" y="502" type="line"/>
      <point x="550" y="502" type="line"/>
      <point x="550" y="536" type="line" smooth="yes"/>
      <point x="550" y="628"/>
      <point x="578" y="656"/>
      <point x="670" y="656" type="curve" smooth="yes"/>
      <point x="692" y="656"/>
      <point x="703" y="655"/>
      <point x="720" y="651" type="curve"/>
      <point x="747" y="592" type="line"/>
      <point x="799" y="592"/>
      <point x="818" y="611"/>
      <point x="818" y="646" type="curve" smooth="yes"/>
      <point x="818" y="690"/>
      <point x="774" y="718"/>
      <point x="680" y="718" type="curve" smooth="yes"/>
      <point x="525" y="718"/>
      <point x="466" y="663"/>
      <point x="466" y="517" type="curve" smooth="yes"/>
      <point x="466" y="502" type="line"/>
      <point x="198" y="502" type="line"/>
      <point x="198" y="576" type="line" smooth="yes"/>
      <point x="198" y="625"/>
      <point x="222" y="656"/>
      <point x="279" y="656" type="curve"/>
      <point x="306" y="597" type="line"/>
      <point x="358" y="597"/>
      <point x="377" y="616"/>
      <point x="377" y="651" type="curve" smooth="yes"/>
      <point x="377" y="697"/>
      <point x="352" y="718"/>
      <point x="290" y="718" type="curve" smooth="yes"/>
      <point x="177" y="718"/>
      <point x="114" y="664"/>
      <point x="114" y="550" type="curve" smooth="yes"/>
      <point x="114" y="502" type="line"/>
      <point x="46" y="488" type="line"/>
      <point x="46" y="432" type="line"/>
      <point x="114" y="432" type="line"/>
      <point x="114" y="85" type="line"/>
      <point x="46" y="55" type="line"/>
      <point x="46" y="0" type="line"/>
    </contour>
  </outline>
</glyph>
<glyph name="fa_ra-deva" format="1">
  <advance width="864"/>
  <outline>
    <contour>
      <point x="354" y="231" type="line"/>
      <point x="90" y="0" type="line"/>
      <point x="200" y="0" type="line"/>
      <point x="450" y="231" type="line"/>
    </contour>
    <component base="pha-deva"/>
    <component base="nukta-deva" xOffset="200" yOffset="104"/>
  </outline>
</glyph>
<glyph name="g_na-deva" format="1">
  <advance width="586"/>
  <outline>
    <contour>
      <point x="432" y="299" type="line"/>
      <point x="160" y="70" type="line" smooth="yes"/>
      <point x="125" y="40"/>
      <point x="109" y="13"/>
      <point x="109" y="-16" type="curve" smooth="yes"/>
      <point x="109" y="-61"/>
      <point x="149" y="-100"/>
      <point x="194" y="-100" type="curve" smooth="yes"/>
      <point x="217" y="-100"/>
      <point x="235" y="-90"/>
      <point x="262" y="-66" type="curve"/>
      <point x="224" y="58" type="line"/>
      <point x="210" y="21" type="line"/>
      <point x="432" y="207" type="line"/>
    </contour>
    <component base="ga-deva"/>
    <contour>
      <point x="42" y="70" type="move" name="nukta"/>
    </contour>
  </outline>
</glyph>
<glyph name="g_ra_ya-deva" format="1">
  <advance width="895"/>
  <outline>
    <component base="g_ra-deva"/>
    <component base="ya-deva" xOffset="318"/>
    <contour>
      <point x="0" y="82" type="move" name="nukta"/>
    </contour>
  </outline>
</glyph>
<glyph name="ga_ra-deva" format="1">
  <advance width="590"/>
  <outline>
    <contour>
      <point x="188" y="0" type="line"/>
      <point x="434" y="207" type="line"/>
      <point x="434" y="300" type="line"/>
      <point x="76" y="0" type="line"/>
    </contour>
    <component base="ga-deva"/>
    <contour>
      <point x="0" y="82" type="move" name="nukta"/>
    </contour>
  </outline>
</glyph>
<glyph name="ha_uuMatra-deva" format="1">
  <advance width="528"/>
  <outline>
    <contour>
      <point x="312" y="-366"/>
      <point x="345" y="-362"/>
      <point x="371" y="-351" type="curve"/>
      <point x="371" y="-279" type="line"/>
      <point x="341" y="-291"/>
      <point x="311" y="-294"/>
      <point x="283" y="-294" type="curve" smooth="yes"/>
      <point x="225" y="-294"/>
      <point x="201" y="-274"/>
      <point x="201" y="-233" type="curve" smooth="yes"/>
      <point x="201" y="-186"/>
      <point x="234" y="-165"/>
      <point x="308" y="-165" type="curve" smooth="yes"/>
      <point x="439" y="-165"/>
      <point x="502" y="-232"/>
      <point x="502" y="-366" type="curve"/>
      <point x="564" y="-366" type="line"/>
      <point x="564" y="-203"/>
      <point x="484" y="-115"/>
      <point x="326" y="-93" type="curve" smooth="yes"/>
      <point x="217" y="-78"/>
      <point x="124" y="-61"/>
      <point x="124" y="84" type="curve" smooth="yes"/>
      <point x="124" y="182"/>
      <point x="167" y="225"/>
      <point x="298" y="225" type="curve" smooth="yes"/>
      <point x="382" y="225"/>
      <point x="408" y="207"/>
      <point x="408" y="161" type="curve" smooth="yes"/>
      <point x="408" y="117"/>
      <point x="384" y="105"/>
      <point x="308" y="105" type="curve"/>
      <point x="308" y="23" type="line"/>
      <point x="421" y="23"/>
      <point x="480" y="65"/>
      <point x="480" y="164" type="curve" smooth="yes"/>
      <point x="480" y="261"/>
      <point x="423" y="307"/>
      <point x="295" y="307" type="curve" smooth="yes"/>
      <point x="138" y="307"/>
      <point x="52" y="237"/>
      <point x="52" y="82" type="curve" smooth="yes"/>
      <point x="52" y="-30"/>
      <point x="97" y="-97"/>
      <point x="194" y="-137" type="curve"/>
      <point x="192" y="-123" type="line"/>
      <point x="157" y="-147"/>
      <point x="139" y="-185"/>
      <point x="139" y="-235" type="curve" smooth="yes"/>
      <point x="139" y="-319"/>
      <point x="190" y="-366"/>
      <point x="280" y="-366" type="curve" smooth="yes"/>
    </contour>
    <contour>
      <point x="193" y="285" type="line"/>
      <point x="143" y="285"/>
      <point x="124" y="297"/>
      <point x="124" y="355" type="curve" smooth="yes"/>
      <point x="124" y="407"/>
      <point x="140" y="423"/>
      <point x="203" y="423" type="curve" smooth="yes"/>
      <point x="442" y="423" type="line"/>
      <point x="442" y="614" type="line"/>
      <point x="374" y="614" type="line"/>
      <point x="374" y="484" type="line"/>
      <point x="393" y="501" type="line"/>
      <point x="195" y="501" type="line" smooth="yes"/>
      <point x="93" y="501"/>
      <point x="52" y="452"/>
      <point x="52" y="361" type="curve" smooth="yes"/>
      <point x="52" y="264"/>
      <point x="100" y="217"/>
      <point x="193" y="217" type="curve"/>
    </contour>
    <contour>
      <point x="538" y="604" type="line"/>
      <point x="538" y="680" type="line"/>
      <point x="-10" y="680" type="line"/>
      <point x="-10" y="604" type="line"/>
    </contour>
    <contour>
      <point x="52" y="-151" type="move" name="nukta"/>
    </contour>
    <contour>
      <point x="408" y="680" type="move" name="top"/>
    </contour>
  </outline>
</glyph>
<glyph name="iMatra-deva.05" format="1">
  <advance width="260"/>
  <outline>
    <contour>
      <point x="159" y="981"/>
      <point x="69" y="925"/>
      <point x="69" y="795" type="curve" smooth="yes"/>
      <point x="69" y="752"/>
      <point x="79" y="709"/>
      <point x="98" y="670" type="curve"/>
      <point x="163" y="670" type="line"/>
      <point x="147" y="706"/>
      <point x="137" y="742"/>
      <point x="137" y="784" type="curve" smooth="yes"/>
      <point x="137" y="878"/>
      <point x="185" y="905"/>
      <point x="376" y="905" type="curve" smooth="yes"/>
      <point x="605" y="905"/>
      <point x="746" y="867"/>
      <point x="978" y="739" type="curve"/>
      <point x="978" y="812" type="line"/>
      <point x="779" y="927"/>
      <point x="591" y="981"/>
      <point x="375" y="981" type="curve" smooth="yes"/>
    </contour>
    <component base="aaMatra-deva"/>
    <contour>
      <point x="958" y="739" type="move" name="imatra"/>
    </contour>
    <contour>
      <point x="944" y="809" type="move" name="top"/>
    </contour>
  </outline>
</glyph>
<glyph name="iMatra-deva.08" format="1">
  <advance width="260"/>
  <outline>
    <contour>
      <point x="172" y="998"/>
      <point x="68" y="944"/>
      <point x="68" y="798" type="curve" smooth="yes"/>
      <point x="68" y="753"/>
      <point x="78" y="712"/>
      <point x="98" y="670" type="curve"/>
      <point x="163" y="670" type="line"/>
      <point x="148" y="702"/>
      <point x="136" y="742"/>
      <point x="136" y="789" type="curve" smooth="yes"/>
      <point x="136" y="896"/>
      <point x="195" y="922"/>
      <point x="452" y="922" type="curve" smooth="yes"/>
      <point x="763" y="922"/>
      <point x="938" y="884"/>
      <point x="1263" y="738" type="curve"/>
      <point x="1263" y="807" type="line"/>
      <point x="983" y="943"/>
      <point x="737" y="998"/>
      <point x="452" y="998" type="curve" smooth="yes"/>
    </contour>
    <component base="aaMatra-deva"/>
    <contour>
      <point x="1243" y="738" type="move" name="imatra"/>
    </contour>
    <contour>
      <point x="1229" y="808" type="move" name="top"/>
    </contour>
  </outline>
</glyph>
<glyph name="iiMatra-deva.01" format="1">
  <advance width="260"/>
  <outline>
    <contour>
      <point x="-188" y="955"/>
      <point x="-246" y="908"/>
      <point x="-246" y="809" type="curve" smooth="yes"/>
      <point x="-246" y="783"/>
      <point x="-242" y="760"/>
      <point x="-232" y="741" type="curve"/>
      <point x="-174" y="741" type="line"/>
      <point x="-177" y="764"/>
      <point x="-178" y="780"/>
      <point x="-178" y="792" type="curve" smooth="yes"/>
      <point x="-178" y="856"/>
      <point x="-149" y="879"/>
      <point x="-71" y="879" type="curve" smooth="yes"/>
      <point x="49" y="879"/>
      <point x="96" y="825"/>
      <point x="96" y="680" type="curve"/>
      <point x="164" y="680" type="line"/>
      <point x="164" y="871"/>
      <point x="90" y="955"/>
      <point x="-69" y="955" type="curve" smooth="yes"/>
    </contour>
    <component base="aaMatra-deva"/>
    <contour>
      <point x="-203" y="741" type="move" name="iimatra"/>
    </contour>
  </outline>
</glyph>
<glyph name="iiMatra-deva.02" format="1">
  <advance width="260"/>
  <outline>
    <contour>
      <point x="-214" y="956"/>
      <point x="-271" y="909"/>
      <point x="-271" y="809" type="curve" smooth="yes"/>
      <point x="-271" y="781"/>
      <point x="-267" y="759"/>
      <point x="-257" y="741" type="curve"/>
      <point x="-199" y="741" type="line"/>
      <point x="-202" y="763"/>
      <point x="-203" y="777"/>
      <point x="-203" y="792" type="curve" smooth="yes"/>
      <point x="-203" y="855"/>
      <point x="-172" y="880"/>
      <point x="-90" y="880" type="curve" smooth="yes"/>
      <point x="44" y="880"/>
      <point x="96" y="824"/>
      <point x="96" y="680" type="curve"/>
      <point x="164" y="680" type="line"/>
      <point x="164" y="867"/>
      <point x="81" y="956"/>
      <point x="-93" y="956" type="curve" smooth="yes"/>
    </contour>
    <component base="aaMatra-deva"/>
    <contour>
      <point x="-228" y="741" type="move" name="iimatra"/>
    </contour>
  </outline>
</glyph>
<glyph name="iiMatra-deva.03" format="1">
  <advance width="260"/>
  <outline>
    <contour>
      <point x="-233" y="956"/>
      <point x="-295" y="909"/>
      <point x="-295" y="809" type="curve" smooth="yes"/>
      <point x="-295" y="781"/>
      <point x="-290" y="759"/>
      <point x="-280" y="741" type="curve"/>
      <point x="-222" y="741" type="line"/>
      <point x="-226" y="767"/>
      <point x="-227" y="782"/>
      <point x="-227" y="792" type="curve" smooth="yes"/>
      <point x="-227" y="855"/>
      <point x="-192" y="880"/>
      <point x="-99" y="880" type="curve" smooth="yes"/>
      <point x="41" y="880"/>
      <point x="96" y="824"/>
      <point x="96" y="680" type="curve"/>
      <point x="164" y="680" type="line"/>
      <point x="164" y="867"/>
      <point x="78" y="956"/>
      <point x="-102" y="956" type="curve" smooth="yes"/>
    </contour>
    <component base="aaMatra-deva"/>
    <contour>
      <point x="-251" y="741" type="move" name="iimatra"/>
    </contour>
  </outline>
</glyph>
<glyph name="iiMatra-deva.04" format="1">
  <advance width="260"/>
  <outline>
    <contour>
      <point x="-379" y="963"/>
      <point x="-456" y="914"/>
      <point x="-456" y="807" type="curve" smooth="yes"/>
      <point x="-456" y="782"/>
      <point x="-452" y="759"/>
      <point x="-442" y="741" type="curve"/>
      <point x="-384" y="741" type="line"/>
      <point x="-387" y="763"/>
      <point x="-388" y="778"/>
      <point x="-388" y="788" type="curve" smooth="yes"/>
      <point x="-388" y="861"/>
      <point x="-336" y="887"/>
      <point x="-203" y="887" type="curve" smooth="yes"/>
      <point x="-14" y="887"/>
      <point x="72" y="834"/>
      <point x="96" y="680" type="curve"/>
      <point x="163" y="680" type="line"/>
      <point x="142" y="872"/>
      <point x="22" y="963"/>
      <point x="-209" y="963" type="curve" smooth="yes"/>
    </contour>
    <component base="aaMatra-deva"/>
    <contour>
      <point x="-413" y="741" type="move" name="iimatra"/>
    </contour>
  </outline>
</glyph>
<glyph name="jh-deva.loclNEP" format="1">
  <advance width="782"/>
  <outline>
    <contour>
      <point x="258" y="168"/>
      <point x="303" y="193"/>
      <point x="303" y="260" type="curve" smooth="yes"/>
      <point x="303" y="529" type="line" smooth="yes"/>
      <point x="303" y="636"/>
      <point x="258" y="688"/>
      <point x="165" y="688" type="curve" smooth="yes"/>
      <point x="78" y="688"/>
      <point x="35" y="643"/>
      <point x="35" y="554" type="curve" smooth="yes"/>
      <point x="35" y="465"/>
      <point x="78" y="425"/>
      <point x="157" y="425" type="curve"/>
      <point x="157" y="505" type="line"/>
      <point x="116" y="505"/>
      <point x="97" y="518"/>
      <point x="97" y="555" type="curve" smooth="yes"/>
      <point x="97" y="592"/>
      <point x="116" y="606"/>
      <point x="167" y="606" type="curve" smooth="yes"/>
      <point x="212" y="606"/>
      <point x="235" y="595"/>
      <point x="235" y="520" type="curve" smooth="yes"/>
      <point x="235" y="271" type="line"/>
      <point x="562" y="271" type="line"/>
      <point x="562" y="349" type="line"/>
      <point x="218" y="349" type="line" smooth="yes"/>
      <point x="161" y="349"/>
      <point x="126" y="323"/>
      <point x="126" y="258" type="curve" smooth="yes"/>
      <point x="126" y="193"/>
      <point x="162" y="168"/>
      <point x="210" y="168" type="curve" smooth="yes"/>
    </contour>
    <contour>
      <point x="605" y="0" type="line"/>
      <point x="605" y="614" type="line"/>
      <point x="537" y="614" type="line"/>
      <point x="537" y="0" type="line"/>
    </contour>
    <contour>
      <point x="642" y="341"/>
      <point x="714" y="382"/>
      <point x="788" y="382" type="curve" smooth="yes"/>
      <point x="833" y="382"/>
      <point x="861" y="365"/>
      <point x="875" y="313" type="curve"/>
      <point x="925" y="313" type="line"/>
      <point x="925" y="421"/>
      <point x="879" y="464"/>
      <point x="794" y="464" type="curve" smooth="yes"/>
      <point x="714" y="464"/>
      <point x="644" y="419"/>
      <point x="595" y="358" type="curve"/>
      <point x="595" y="265" type="line"/>
    </contour>
    <contour>
      <point x="849" y="604" type="line"/>
      <point x="849" y="680" type="line"/>
      <point x="378" y="680" type="line"/>
      <point x="378" y="604" type="line"/>
    </contour>
    <contour>
      <point x="201" y="0" type="move" name="nukta"/>
    </contour>
    <contour>
      <point x="571" y="0" type="move" name="bottom"/>
    </contour>
    <contour>
      <point x="571" y="680" type="move" name="top"/>
    </contour>
  </outline>
</glyph>
<glyph name="jha-deva.loclNEP" format="1">
  <advance width="987"/>
  <outline>
    <contour>
      <point x="258" y="168"/>
      <point x="303" y="193"/>
      <point x="303" y="260" type="curve" smooth="yes"/>
      <point x="303" y="529" type="line" smooth="yes"/>
      <point x="303" y="636"/>
      <point x="258" y="688"/>
      <point x="165" y="688" type="curve" smooth="yes"/>
      <point x="78" y="688"/>
      <point x="35" y="643"/>
      <point x="35" y="554" type="curve" smooth="yes"/>
      <point x="35" y="465"/>
      <point x="78" y="425"/>
      <point x="157" y="425" type="curve"/>
      <point x="157" y="505" type="line"/>
      <point x="116" y="505"/>
      <point x="97" y="518"/>
      <point x="97" y="555" type="curve" smooth="yes"/>
      <point x="97" y="592"/>
      <point x="116" y="606"/>
      <point x="167" y="606" type="curve" smooth="yes"/>
      <point x="212" y="606"/>
      <point x="235" y="595"/>
      <point x="235" y="520" type="curve" smooth="yes"/>
      <point x="235" y="271" type="line"/>
      <point x="562" y="271" type="line"/>
      <point x="562" y="349" type="line"/>
      <point x="218" y="349" type="line" smooth="yes"/>
      <point x="161" y="349"/>
      <point x="126" y="323"/>
      <point x="126" y="258" type="curve" smooth="yes"/>
      <point x="126" y="193"/>
      <point x="162" y="168"/>
      <point x="210" y="168" type="curve" smooth="yes"/>
    </contour>
    <contour>
      <point x="605" y="0" type="line"/>
      <point x="605" y="614" type="line"/>
      <point x="537" y="614" type="line"/>
      <point x="537" y="0" type="line"/>
    </contour>
    <contour>
      <point x="832" y="58"/>
      <point x="875" y="69"/>
      <point x="903" y="98" type="curve" smooth="yes"/>
      <point x="933" y="129"/>
      <point x="947" y="181"/>
      <point x="947" y="251" type="curve" smooth="yes"/>
      <point x="947" y="381"/>
      <point x="897" y="444"/>
      <point x="787" y="444" type="curve" smooth="yes"/>
      <point x="704" y="444"/>
      <point x="643" y="408"/>
      <point x="595" y="353" type="curve"/>
      <point x="595" y="265" type="line"/>
      <point x="649" y="329"/>
      <point x="698" y="362"/>
      <point x="778" y="362" type="curve" smooth="yes"/>
      <point x="850" y="362"/>
      <point x="875" y="335"/>
      <point x="875" y="248" type="curve" smooth="yes"/>
      <point x="875" y="161"/>
      <point x="850" y="140"/>
      <point x="762" y="140" type="curve" smooth="yes"/>
      <point x="742" y="140"/>
      <point x="719" y="141"/>
      <point x="696" y="144" type="curve"/>
      <point x="696" y="62" type="line"/>
      <point x="721" y="59"/>
      <point x="748" y="58"/>
      <point x="768" y="58" type="curve" smooth="yes"/>
    </contour>
    <contour>
      <point x="997" y="604" type="line"/>
      <point x="997" y="680" type="line"/>
      <point x="378" y="680" type="line"/>
      <point x="378" y="604" type="line"/>
    </contour>
    <contour>
      <point x="201" y="0" type="move" name="nukta"/>
    </contour>
    <contour>
      <point x="571" y="0" type="move" name="bottom"/>
    </contour>
    <contour>
      <point x="571" y="680" type="move" name="top"/>
    </contour>
  </outline>
</glyph>
<glyph name="ka_ra-deva.loclNEP" format="1">
  <advance width="817"/>
  <outline>
    <contour>
      <point x="385" y="297" type="line"/>
      <point x="300" y="423"/>
      <point x="234" y="465"/>
      <point x="150" y="465" type="curve" smooth="yes"/>
      <point x="113" y="465"/>
      <point x="75" y="460"/>
      <point x="45" y="450" type="curve"/>
      <point x="45" y="368" type="line"/>
      <point x="79" y="378"/>
      <point x="113" y="383"/>
      <point x="150" y="383" type="curve" smooth="yes"/>
      <point x="219" y="383"/>
      <point x="253" y="365"/>
      <point x="329" y="255" type="curve"/>
    </contour>
    <contour>
      <point x="435" y="0" type="line"/>
      <point x="435" y="614" type="line"/>
      <point x="367" y="614" type="line"/>
      <point x="367" y="0" type="line"/>
    </contour>
    <contour>
      <point x="827" y="604" type="line"/>
      <point x="827" y="680" type="line"/>
      <point x="0" y="680" type="line"/>
      <point x="0" y="604" type="line"/>
    </contour>
    <contour>
      <point x="35" y="0" type="line"/>
      <point x="136" y="0" type="line"/>
      <point x="377" y="240" type="line"/>
      <point x="377" y="334" type="line"/>
    </contour>
    <contour>
      <point x="540" y="444"/>
      <point x="477" y="414"/>
      <point x="425" y="360" type="curve"/>
      <point x="425" y="273" type="line"/>
      <point x="486" y="337"/>
      <point x="536" y="362"/>
      <point x="608" y="362" type="curve" smooth="yes"/>
      <point x="680" y="362"/>
      <point x="705" y="335"/>
      <point x="705" y="248" type="curve" smooth="yes"/>
      <point x="705" y="161"/>
      <point x="680" y="140"/>
      <point x="592" y="140" type="curve" smooth="yes"/>
      <point x="572" y="140"/>
      <point x="549" y="141"/>
      <point x="526" y="144" type="curve"/>
      <point x="526" y="62" type="line"/>
      <point x="551" y="59"/>
      <point x="578" y="58"/>
      <point x="598" y="58" type="curve" smooth="yes"/>
      <point x="662" y="58"/>
      <point x="705" y="69"/>
      <point x="733" y="98" type="curve" smooth="yes"/>
      <point x="763" y="129"/>
      <point x="777" y="181"/>
      <point x="777" y="251" type="curve" smooth="yes"/>
      <point x="777" y="381"/>
      <point x="727" y="444"/>
      <point x="617" y="444" type="curve" smooth="yes"/>
    </contour>
    <contour>
      <point x="251" y="-65" type="move" name="nukta"/>
    </contour>
    <contour>
      <point x="401" y="0" type="move" name="bottom"/>
    </contour>
    <contour>
      <point x="401" y="680" type="move" name="top"/>
    </contour>
  </outline>
</glyph>
<glyph name="logicalnot.lf" format="1">
  <advance width="646"/>
  <outline>
    <contour>
      <point x="70" y="379" type="line"/>
      <point x="70" y="301" type="line"/>
      <point x="494" y="301" type="line"/>
      <point x="494" y="145" type="line"/>
      <point x="576" y="145" type="line"/>
      <point x="576" y="379" type="line"/>
    </contour>
  </outline>
</glyph>
<glyph name="m_la-deva.loclMAR" format="1">
  <advance width="594"/>
  <outline>
    <contour>
      <point x="498" y="50" type="line"/>
      <point x="498" y="614" type="line"/>
      <point x="436" y="614" type="line"/>
      <point x="436" y="50" type="line"/>
    </contour>
    <contour>
      <point x="604" y="604" type="line"/>
      <point x="604" y="680" type="line"/>
      <point x="-10" y="680" type="line"/>
      <point x="-10" y="604" type="line"/>
    </contour>
    <contour>
      <point x="120" y="264" type="line"/>
      <point x="449" y="264" type="line"/>
      <point x="449" y="336" type="line"/>
      <point x="105" y="336" type="line" smooth="yes"/>
      <point x="51" y="336"/>
      <point x="14" y="309"/>
      <point x="14" y="247" type="curve" smooth="yes"/>
      <point x="14" y="184"/>
      <point x="51" y="160"/>
      <point x="100" y="160" type="curve" smooth="yes"/>
      <point x="149" y="160"/>
      <point x="182" y="184"/>
      <point x="182" y="251" type="curve" smooth="yes"/>
      <point x="182" y="614" type="line"/>
      <point x="120" y="614" type="line"/>
    </contour>
    <component base="la-deva.loclMAR.post"/>
  </outline>
</glyph>
<glyph name="m_n-deva" format="1">
  <advance width="376"/>
  <note>
	dMN.half
  </note>
  <outline>
    <contour>
      <point x="362" y="-100"/>
      <point x="380" y="-80"/>
      <point x="402" y="-45" type="curve"/>
      <point x="332" y="64" type="line"/>
      <point x="334" y="30" type="line"/>
      <point x="507" y="243" type="line"/>
      <point x="507" y="311" type="line"/>
      <point x="114" y="311" type="line" smooth="yes"/>
      <point x="67" y="311"/>
      <point x="29" y="289"/>
      <point x="29" y="223" type="curve" smooth="yes"/>
      <point x="29" y="160"/>
      <point x="63" y="137"/>
      <point x="111" y="137" type="curve" smooth="yes"/>
      <point x="158" y="137"/>
      <point x="199" y="160"/>
      <point x="199" y="224" type="curve" smooth="yes"/>
      <point x="199" y="615" type="line"/>
      <point x="131" y="615" type="line"/>
      <point x="131" y="233" type="line"/>
      <point x="423" y="233" type="line"/>
      <point x="419" y="242" type="line"/>
      <point x="266" y="56" type="line" smooth="yes"/>
      <point x="246" y="32"/>
      <point x="237" y="8"/>
      <point x="237" y="-14" type="curve" smooth="yes"/>
      <point x="237" y="-63"/>
      <point x="284" y="-100"/>
      <point x="329" y="-100" type="curve" smooth="yes"/>
    </contour>
    <contour>
      <point x="476" y="604" type="line"/>
      <point x="476" y="680" type="line"/>
      <point x="-10" y="680" type="line"/>
      <point x="-10" y="604" type="line"/>
    </contour>
    <contour>
      <point x="99" y="47" type="move" name="nukta"/>
    </contour>
  </outline>
</glyph>
<glyph name="multiply.lf" format="1">
  <advance width="646"/>
  <outline>
    <contour>
      <point x="48" y="519" type="line"/>
      <point x="548" y="101" type="line"/>
      <point x="598" y="161" type="line"/>
      <point x="335" y="381" type="line"/>
      <point x="98" y="579" type="line"/>
    </contour>
    <contour>
      <point x="311" y="381" type="line"/>
      <point x="48" y="161" type="line"/>
      <point x="98" y="101" type="line"/>
      <point x="598" y="519" type="line"/>
      <point x="548" y="579" type="line"/>
    </contour>
  </outline>
</glyph>
<glyph name="n_ma-deva" format="1">
  <advance width="905"/>
  <outline>
    <contour>
      <point x="-10" y="680" type="line"/>
      <point x="-10" y="604" type="line"/>
      <point x="294" y="604" type="line"/>
      <point x="294" y="680" type="line"/>
    </contour>
    <contour>
      <point x="138" y="361" type="line"/>
      <point x="430" y="361" type="line"/>
      <point x="430" y="437" type="line"/>
      <point x="136" y="437" type="line" smooth="yes"/>
      <point x="51" y="437"/>
      <point x="20" y="413"/>
      <point x="20" y="348" type="curve" smooth="yes"/>
      <point x="20" y="286"/>
      <point x="49" y="254"/>
      <point x="116" y="254" type="curve"/>
      <point x="168" y="373" type="line"/>
    </contour>
    <component base="ma-deva" xOffset="284"/>
    <contour>
      <point x="95" y="0" type="move" name="nukta"/>
    </contour>
  </outline>
</glyph>
<glyph name="ng_ga-deva" format="1">
  <advance width="634"/>
  <outline>
    <contour>
      <point x="343" y="140" type="line"/>
      <point x="343" y="-321" type="line"/>
      <point x="405" y="-321" type="line"/>
      <point x="405" y="140" type="line"/>
    </contour>
    <contour>
      <point x="52" y="-155" type="line"/>
      <point x="52" y="-215"/>
      <point x="77" y="-242"/>
      <point x="127" y="-242" type="curve" smooth="yes"/>
      <point x="181" y="-242"/>
      <point x="205" y="-212"/>
      <point x="205" y="-143" type="curve" smooth="yes"/>
      <point x="205" y="140" type="line"/>
      <point x="143" y="140" type="line"/>
      <point x="143" y="-136" type="line"/>
      <point x="153" y="-110" type="line"/>
    </contour>
    <component base="ng_deva.post"/>
    <contour>
      <point x="137" y="-339" type="move" name="nukta"/>
    </contour>
    <contour>
      <point x="374" y="-301" type="move" name="bottom"/>
    </contour>
  </outline>
</glyph>
<glyph name="ng_k_t_ta-deva" format="1">
  <advance width="634"/>
  <outline>
    <contour>
      <point x="437" y="-271" type="line" smooth="yes"/>
      <point x="532" y="-271"/>
      <point x="584" y="-233"/>
      <point x="584" y="-121" type="curve" smooth="yes"/>
      <point x="584" y="-9"/>
      <point x="532" y="29"/>
      <point x="436" y="29" type="curve" smooth="yes"/>
      <point x="387" y="29"/>
      <point x="356" y="19"/>
      <point x="325" y="4" type="curve"/>
      <point x="325" y="-65" type="line"/>
      <point x="356" y="-51"/>
      <point x="380" y="-45"/>
      <point x="425" y="-45" type="curve" smooth="yes"/>
      <point x="504" y="-45"/>
      <point x="520" y="-63"/>
      <point x="520" y="-121" type="curve" smooth="yes"/>
      <point x="520" y="-180"/>
      <point x="504" y="-197"/>
      <point x="423" y="-197" type="curve" smooth="yes"/>
      <point x="410" y="-197" type="line"/>
      <point x="410" y="-271" type="line"/>
    </contour>
    <contour>
      <point x="172" y="-321" type="line"/>
      <point x="145" y="-251"/>
      <point x="127" y="-200"/>
      <point x="127" y="-150" type="curve" smooth="yes"/>
      <point x="127" y="-89"/>
      <point x="153" y="-61"/>
      <point x="210" y="-61" type="curve"/>
      <point x="191" y="-7" type="line"/>
      <point x="98" y="-7"/>
      <point x="61" y="-59"/>
      <point x="61" y="-139" type="curve" smooth="yes"/>
      <point x="61" y="-192"/>
      <point x="77" y="-248"/>
      <point x="109" y="-321" type="curve"/>
    </contour>
    <contour>
      <point x="283" y="-61" type="line"/>
      <point x="283" y="1" type="line"/>
      <point x="11" y="1" type="line"/>
      <point x="11" y="-61" type="line"/>
    </contour>
    <contour>
      <point x="335" y="-321" type="line"/>
      <point x="335" y="143" type="line"/>
      <point x="273" y="143" type="line"/>
      <point x="273" y="-321" type="line"/>
    </contour>
    <component base="ng_deva.post"/>
    <contour>
      <point x="11" y="-321" type="move" name="nukta"/>
    </contour>
    <contour>
      <point x="304" y="-301" type="move" name="bottom"/>
    </contour>
  </outline>
</glyph>
<glyph name="nn-deva" format="1">
  <advance width="542"/>
  <outline>
    <contour>
      <point x="400" y="156"/>
      <point x="461" y="220"/>
      <point x="461" y="363" type="curve" smooth="yes"/>
      <point x="461" y="614" type="line"/>
      <point x="393" y="614" type="line"/>
      <point x="393" y="360" type="line" smooth="yes"/>
      <point x="393" y="270"/>
      <point x="361" y="238"/>
      <point x="271" y="238" type="curve" smooth="yes"/>
      <point x="182" y="238"/>
      <point x="149" y="270"/>
      <point x="149" y="360" type="curve" smooth="yes"/>
      <point x="149" y="614" type="line"/>
      <point x="81" y="614" type="line"/>
      <point x="81" y="363" type="line" smooth="yes"/>
      <point x="81" y="220"/>
      <point x="143" y="156"/>
      <point x="271" y="156" type="curve" smooth="yes"/>
    </contour>
    <contour>
      <point x="642" y="604" type="line"/>
      <point x="642" y="680" type="line"/>
      <point x="-10" y="680" type="line"/>
      <point x="-10" y="604" type="line"/>
    </contour>
    <contour>
      <point x="275" y="0" type="move" name="nukta"/>
    </contour>
  </outline>
</glyph>
<glyph name="question-deva" format="1">
  <advance width="553"/>
  <outline>
    <contour>
      <point x="145" y="692"/>
      <point x="55" y="637"/>
      <point x="55" y="540" type="curve" smooth="yes"/>
      <point x="55" y="486"/>
      <point x="83" y="454"/>
      <point x="132" y="454" type="curve" smooth="yes"/>
      <point x="164" y="454"/>
      <point x="188" y="468"/>
      <point x="196" y="492" type="curve"/>
      <point x="150" y="610" type="line"/>
      <point x="145" y="575" type="line"/>
      <point x="186" y="600"/>
      <point x="228" y="610"/>
      <point x="289" y="610" type="curve" smooth="yes"/>
      <point x="388" y="610"/>
      <point x="426" y="584"/>
      <point x="426" y="519" type="curve" smooth="yes"/>
      <point x="426" y="463"/>
      <point x="398" y="441"/>
      <point x="352" y="408" type="curve" smooth="yes"/>
      <point x="267" y="347"/>
      <point x="233" y="319"/>
      <point x="228" y="197" type="curve"/>
      <point x="296" y="197" type="line"/>
      <point x="296" y="273"/>
      <point x="317" y="291"/>
      <point x="375" y="332" type="curve" smooth="yes"/>
      <point x="448" y="383"/>
      <point x="498" y="418"/>
      <point x="498" y="514" type="curve" smooth="yes"/>
      <point x="498" y="628"/>
      <point x="428" y="692"/>
      <point x="281" y="692" type="curve" smooth="yes"/>
    </contour>
    <contour>
      <point x="220" y="128"/>
      <point x="194" y="104"/>
      <point x="194" y="60" type="curve" smooth="yes"/>
      <point x="194" y="16"/>
      <point x="220" y="-8"/>
      <point x="262" y="-8" type="curve" smooth="yes"/>
      <point x="304" y="-8"/>
      <point x="330" y="16"/>
      <point x="330" y="60" type="curve" smooth="yes"/>
      <point x="330" y="104"/>
      <point x="304" y="128"/>
      <point x="262" y="128" type="curve" smooth="yes"/>
    </contour>
  </outline>
</glyph>
<glyph name="ra_uuMatra-deva" format="1">
  <advance width="637"/>
  <note>
	dRMatraUu
  </note>
  <outline>
    <contour>
      <point x="387" y="680" type="line"/>
      <point x="387" y="604" type="line"/>
      <point x="647" y="604" type="line"/>
      <point x="647" y="680" type="line"/>
    </contour>
    <contour>
      <point x="233" y="220"/>
      <point x="284" y="173"/>
      <point x="369" y="173" type="curve" smooth="yes"/>
      <point x="401" y="173"/>
      <point x="434" y="177"/>
      <point x="460" y="188" type="curve"/>
      <point x="460" y="260" type="line"/>
      <point x="430" y="248"/>
      <point x="400" y="245"/>
      <point x="372" y="245" type="curve" smooth="yes"/>
      <point x="319" y="245"/>
      <point x="295" y="265"/>
      <point x="295" y="306" type="curve" smooth="yes"/>
      <point x="295" y="353"/>
      <point x="328" y="374"/>
      <point x="397" y="374" type="curve" smooth="yes"/>
      <point x="523" y="374"/>
      <point x="586" y="307"/>
      <point x="586" y="173" type="curve"/>
      <point x="648" y="173" type="line"/>
      <point x="648" y="347"/>
      <point x="552" y="446"/>
      <point x="401" y="446" type="curve" smooth="yes"/>
      <point x="294" y="446"/>
      <point x="233" y="395"/>
      <point x="233" y="304" type="curve" smooth="yes"/>
    </contour>
    <component base="ra-deva"/>
  </outline>
</glyph>
<glyph name="rakar_uuMatra-deva" format="1">
  <advance width="250"/>
  <outline>
    <component base="rakar-deva"/>
    <component base="uuMatra-deva" xOffset="-17" yOffset="-185"/>
    <contour>
      <point x="125" y="0" type="move" name="_bottom"/>
    </contour>
  </outline>
</glyph>
<glyph name="rr_ya-deva" format="1">
  <advance width="852"/>
  <note>
	dRrYa
  </note>
  <outline>
    <contour>
      <point x="-10" y="680" type="line"/>
      <point x="-10" y="604" type="line"/>
      <point x="285" y="604" type="line"/>
      <point x="285" y="680" type="line"/>
    </contour>
    <contour>
      <point x="241" y="244"/>
      <point x="292" y="254"/>
      <point x="336" y="274" type="curve"/>
      <point x="336" y="356" type="line"/>
      <point x="302" y="337"/>
      <point x="251" y="326"/>
      <point x="193" y="326" type="curve" smooth="yes"/>
      <point x="96" y="326"/>
      <point x="58" y="357"/>
      <point x="58" y="436" type="curve"/>
      <point x="-10" y="436" type="line"/>
      <point x="-10" y="307"/>
      <point x="49" y="244"/>
      <point x="187" y="244" type="curve" smooth="yes"/>
    </contour>
    <component base="ya-deva" xOffset="275"/>
  </outline>
</glyph>
<glyph name="sa_ra-deva" format="1">
  <advance width="708"/>
  <note>
	dSRa
  </note>
  <outline>
    <contour>
      <point x="554" y="325" type="line"/>
      <point x="318" y="88" type="line"/>
      <point x="420" y="88" type="line"/>
      <point x="554" y="226" type="line"/>
    </contour>
    <contour>
      <point x="485" y="347" type="line"/>
      <point x="485" y="269" type="line"/>
      <point x="577" y="269" type="line"/>
      <point x="577" y="347" type="line"/>
    </contour>
    <component base="s-deva" xOffset="1"/>
    <component base="aaMatra-deva" xOffset="448"/>
  </outline>
</glyph>
<glyph name="tt_ddha-deva" format="1">
  <advance width="474"/>
  <outline>
    <contour>
      <point x="414" y="-321"/>
      <point x="474" y="-271"/>
      <point x="474" y="-175" type="curve" smooth="yes"/>
      <point x="474" y="-95"/>
      <point x="433" y="-59"/>
      <point x="353" y="-59" type="curve" smooth="yes"/>
      <point x="261" y="-59"/>
      <point x="225" y="-106"/>
      <point x="225" y="-180" type="curve" smooth="yes"/>
      <point x="225" y="-213"/>
      <point x="232" y="-244"/>
      <point x="242" y="-264" type="curve"/>
      <point x="301" y="-264" type="line"/>
      <point x="294" y="-237"/>
      <point x="291" y="-209"/>
      <point x="291" y="-192" type="curve" smooth="yes"/>
      <point x="291" y="-154"/>
      <point x="306" y="-131"/>
      <point x="352" y="-131" type="curve" smooth="yes"/>
      <point x="390" y="-131"/>
      <point x="408" y="-147"/>
      <point x="408" y="-185" type="curve" smooth="yes"/>
      <point x="408" y="-228"/>
      <point x="384" y="-249"/>
      <point x="279" y="-249" type="curve" smooth="yes"/>
      <point x="145" y="-249"/>
      <point x="106" y="-215"/>
      <point x="106" y="-121" type="curve" smooth="yes"/>
      <point x="106" y="-32"/>
      <point x="141" y="8"/>
      <point x="285" y="8" type="curve" smooth="yes"/>
      <point x="436" y="8" type="line"/>
      <point x="436" y="196" type="line"/>
      <point x="374" y="196" type="line"/>
      <point x="374" y="78" type="line"/>
      <point x="275" y="78" type="line" smooth="yes"/>
      <point x="119" y="78"/>
      <point x="40" y="17"/>
      <point x="40" y="-121" type="curve" smooth="yes"/>
      <point x="40" y="-256"/>
      <point x="115" y="-321"/>
      <point x="274" y="-321" type="curve" smooth="yes"/>
    </contour>
    <component base="tt_tta-deva.post"/>
    <contour>
      <point x="25" y="-341" type="move" name="nukta"/>
    </contour>
    <contour>
      <point x="283" y="-301" type="move" name="bottom"/>
    </contour>
  </outline>
</glyph>
<glyph name="tt_tta-deva" format="1">
  <advance width="474"/>
  <outline>
    <contour>
      <point x="119" y="48"/>
      <point x="40" y="0"/>
      <point x="40" y="-132" type="curve" smooth="yes"/>
      <point x="40" y="-277"/>
      <point x="134" y="-320"/>
      <point x="273" y="-320" type="curve" smooth="yes"/>
      <point x="350" y="-320"/>
      <point x="408" y="-307"/>
      <point x="456" y="-283" type="curve"/>
      <point x="456" y="-207" type="line"/>
      <point x="406" y="-230"/>
      <point x="352" y="-244"/>
      <point x="275" y="-244" type="curve" smooth="yes"/>
      <point x="147" y="-244"/>
      <point x="106" y="-206"/>
      <point x="106" y="-130" type="curve" smooth="yes"/>
      <point x="106" y="-49"/>
      <point x="152" y="-24"/>
      <point x="282" y="-24" type="curve" smooth="yes"/>
      <point x="409" y="-24" type="line"/>
      <point x="409" y="175" type="line"/>
      <point x="347" y="175" type="line"/>
      <point x="347" y="48" type="line"/>
      <point x="273" y="48" type="line" smooth="yes"/>
    </contour>
    <component base="tt_tta-deva.post"/>
    <contour>
      <point x="40" y="-339" type="move" name="nukta"/>
    </contour>
    <contour>
      <point x="280" y="-300" type="move" name="bottom"/>
    </contour>
  </outline>
</glyph>
<glyph name="zero.lf" format="1">
  <advance width="708"/>
  <outline>
    <contour>
      <point x="185" y="692"/>
      <point x="57" y="577"/>
      <point x="57" y="340" type="curve" smooth="yes"/>
      <point x="57" y="103"/>
      <point x="185" y="-12"/>
      <point x="354" y="-12" type="curve" smooth="yes"/>
      <point x="523" y="-12"/>
      <point x="651" y="103"/>
      <point x="651" y="340" type="curve" smooth="yes"/>
      <point x="651" y="577"/>
      <point x="523" y="692"/>
      <point x="354" y="692" type="curve" smooth="yes"/>
    </contour>
    <contour>
      <point x="492" y="618"/>
      <point x="561" y="521"/>
      <point x="561" y="340" type="curve" smooth="yes"/>
      <point x="561" y="159"/>
      <point x="492" y="62"/>
      <point x="354" y="62" type="curve" smooth="yes"/>
      <point x="216" y="62"/>
      <point x="147" y="159"/>
      <point x="147" y="340" type="curve" smooth="yes"/>
      <point x="147" y="521"/>
      <point x="216" y="618"/>
      <point x="354" y="618" type="curve" smooth="yes"/>
    </contour>
  </outline>
</glyph>
